<?xml version="1.0" encoding="UTF-8" standalone="no" ?>
<!DOCTYPE svg PUBLIC "-//W3C//DTD SVG 1.1//EN" "http://www.w3.org/Graphics/SVG/1.1/DTD/svg11.dtd">
<svg xmlns="http://www.w3.org/2000/svg" xmlns:xlink="http://www.w3.org/1999/xlink" version="1.1" width="446" height="481" viewBox="0 0 446 481" xml:space="preserve">
<desc>Created with Fabric.js 3.6.3</desc>
<defs>
</defs>
<g transform="matrix(1 0 0 1 246.5 241)"  >
<g style=""   >
		<g transform="matrix(1 0 0 1 0 0)" id="bound_0"  >
<path style="stroke: rgb(0,100,0); stroke-width: 1; stroke-dasharray: none; stroke-linecap: butt; stroke-dashoffset: 0; stroke-linejoin: miter; stroke-miterlimit: null; fill: none; fill-rule: nonzero; opacity: 1; visibility: hidden;"  transform=" translate(-477.5, -313)" d="M 134.64253859348207 71.30000000000001 L 820.3574614065179 71.30000000000001 L 820.3574614065179 554.7 L 134.64253859348207 554.7 Z" stroke-linecap="round" />
</g>
		<g transform="matrix(34.29 0 0 34.29 -23.33 0)" id="xe_tyqg2z" clip-path="url(#CLIPPATH_5)"  >
<clipPath id="CLIPPATH_5" >
	<rect transform="matrix(0.03 0 0 0.03 0.68 0)" id="xe_n1h9hg" x="-342.8574614065179" y="-241.7" rx="0" ry="0" width="685.7149228130359" height="483.4" />
</clipPath>
<rect style="stroke: none; stroke-width: 1; stroke-dasharray: none; stroke-linecap: butt; stroke-dashoffset: 0; stroke-linejoin: miter; stroke-miterlimit: 4; fill: none; fill-rule: nonzero; opacity: 1;"  x="-10" y="-10" rx="0" ry="0" width="20" height="20" />
</g>
		<g transform="matrix(34.29 0 0 34.29 -23.33 0)" id="xe_oyke8p" clip-path="url(#CLIPPATH_6)"  >
<clipPath id="CLIPPATH_6" >
	<rect transform="matrix(0.03 0 0 0.03 0.68 0)" id="xe_n1h9hg" x="-342.8574614065179" y="-241.7" rx="0" ry="0" width="685.7149228130359" height="483.4" />
</clipPath>
<path style="stroke: none; stroke-width: 1; stroke-dasharray: none; stroke-linecap: butt; stroke-dashoffset: 0; stroke-linejoin: miter; stroke-miterlimit: 4; fill: rgb(0,0,0); fill-rule: nonzero; opacity: 1;"  transform=" translate(-13.25, -9.13)" d="M 11.62651473760605 8.539157602787018 L 10.916514737606049 9.249157602787017 C 10.446514737606048 8.749157602787017 9.986514737606049 8.149157602787017 9.666514737606049 7.289157602787018 L 10.646514737606049 7.039157602787018 C 10.906514737606049 7.669157602787017 11.246514737606049 8.139157602787018 11.62651473760605 8.539157602787018 z M 12.746514737606049 5.129157602787018 L 9.746514737606049 2.129157602787018 L 6.746514737606049 5.129157602787018 L 9.27651473760605 5.129157602787018 C 9.29651473760605 5.5591576027870175 9.346514737606048 5.959157602787018 9.416514737606049 6.319157602787018 L 10.38651473760605 6.079157602787018 C 10.326514737606049 5.789157602787018 10.286514737606048 5.469157602787018 10.266514737606048 5.129157602787018 L 12.746514737606049 5.129157602787018 z M 19.74651473760605 5.129157602787018 L 16.74651473760605 2.129157602787018 L 13.746514737606049 5.129157602787018 L 16.22651473760605 5.129157602787018 C 16.106514737606048 7.3491576027870185 15.20651473760605 8.239157602787017 14.326514737606049 9.089157602787019 C 13.936514737606048 9.459157602787018 13.54651473760605 9.839157602787019 13.246514737606049 10.319157602787017 C 12.986514737606049 9.909157602787017 12.666514737606049 9.569157602787017 12.336514737606048 9.249157602787017 L 11.62651473760605 9.959157602787018 C 12.276514737606048 10.599157602787018 12.746514737606049 11.119157602787018 12.746514737606049 12.129157602787018 L 12.746514737606049 16.129157602787018 L 13.746514737606049 16.129157602787018 L 13.746514737606049 12.129157602787018 C 13.746514737606049 12.129157602787018 13.746514737606049 12.129157602787018 13.746514737606049 12.129157602787018 L 13.746514737606049 12.129157602787018 C 13.746514737606049 11.029157602787018 14.276514737606048 10.519157602787018 15.016514737606048 9.809157602787018 C 15.95651473760605 8.909157602787017 17.08651473760605 7.779157602787018 17.22651473760605 5.129157602787018 L 19.74651473760605 5.129157602787018 z" stroke-linecap="round" />
</g>
		<g transform="matrix(-34.29 0 0 34.29 -23.45 0)" id="xe_7nwkne" clip-path="url(#CLIPPATH_7)"  >
<clipPath id="CLIPPATH_7" >
	<rect transform="matrix(-0.03 0 0 0.03 -0.68 0)" id="xe_n1h9hg" x="-342.8574614065179" y="-241.7" rx="0" ry="0" width="685.7149228130359" height="483.4" />
</clipPath>
<rect style="stroke: none; stroke-width: 1; stroke-dasharray: none; stroke-linecap: butt; stroke-dashoffset: 0; stroke-linejoin: miter; stroke-miterlimit: 4; fill: none; fill-rule: nonzero; opacity: 1;"  x="-10" y="-10" rx="0" ry="0" width="20" height="20" />
</g>
		<g transform="matrix(-34.29 0 0 34.29 -23.45 0)" id="xe_n2ezau" clip-path="url(#CLIPPATH_8)"  >
<clipPath id="CLIPPATH_8" >
	<rect transform="matrix(-0.03 0 0 0.03 -0.68 0)" id="xe_n1h9hg" x="-342.8574614065179" y="-241.7" rx="0" ry="0" width="685.7149228130359" height="483.4" />
</clipPath>
<path style="stroke: none; stroke-width: 1; stroke-dasharray: none; stroke-linecap: butt; stroke-dashoffset: 0; stroke-linejoin: miter; stroke-miterlimit: 4; fill: rgb(0,0,0); fill-rule: nonzero; opacity: 1;"  transform=" translate(-33.24, -9.13)" d="M 31.623269252622723 8.539173023614884 L 30.913269252622726 9.249173023614883 C 30.443269252622727 8.749173023614883 29.983269252622723 8.149173023614884 29.663269252622726 7.289173023614883 L 30.643269252622723 7.039173023614884 C 30.903269252622724 7.669173023614883 31.243269252622724 8.139173023614886 31.623269252622723 8.539173023614884 z M 32.743269252622724 5.129173023614883 L 29.743269252622724 2.129173023614884 L 26.743269252622724 5.129173023614883 L 29.273269252622725 5.129173023614883 C 29.29326925262272 5.559173023614884 29.343269252622726 5.959173023614883 29.413269252622726 6.3191730236148835 L 30.38326925262272 6.079173023614884 C 30.323269252622723 5.789173023614883 30.283269252622723 5.469173023614884 30.263269252622724 5.129173023614883 L 32.743269252622724 5.129173023614883 z M 39.743269252622724 5.129173023614883 L 36.743269252622724 2.129173023614884 L 33.743269252622724 5.129173023614883 L 36.22326925262273 5.129173023614883 C 36.103269252622724 7.349173023614884 35.203269252622725 8.239173023614883 34.32326925262272 9.089173023614883 C 33.93326925262272 9.459173023614884 33.54326925262272 9.839173023614883 33.243269252622724 10.319173023614884 C 32.98326925262272 9.909173023614883 32.663269252622726 9.569173023614884 32.33326925262273 9.249173023614883 L 31.623269252622723 9.959173023614884 C 32.273269252622725 10.599173023614883 32.743269252622724 11.119173023614884 32.743269252622724 12.129173023614884 L 32.743269252622724 16.129173023614882 L 33.743269252622724 16.129173023614882 L 33.743269252622724 12.129173023614884 C 33.743269252622724 12.129173023614884 33.743269252622724 12.129173023614884 33.743269252622724 12.129173023614884 L 33.743269252622724 12.129173023614884 C 33.743269252622724 11.029173023614883 34.273269252622725 10.519173023614883 35.01326925262272 9.809173023614884 C 35.953269252622725 8.909173023614883 37.08326925262273 7.779173023614884 37.22326925262273 5.129173023614883 L 39.743269252622724 5.129173023614883 z" stroke-linecap="round" />
</g>
		<g transform="matrix(1 0 0 1 0 0)" id="border" clip-path="url(#CLIPPATH_9)"  >
<clipPath id="CLIPPATH_9" >
	<rect transform="matrix(1 0 0 1 0 0)" id="xe_n1h9hg" x="-342.8574614065179" y="-241.7" rx="0" ry="0" width="685.7149228130359" height="483.4" />
</clipPath>
<rect style="stroke: rgb(0,0,0); stroke-width: 1; stroke-dasharray: none; stroke-linecap: butt; stroke-dashoffset: 0; stroke-linejoin: miter; stroke-miterlimit: 4; fill: none; fill-rule: nonzero; opacity: 1; visibility: hidden;"  x="-342.8574614065179" y="-241.7" rx="0" ry="0" width="685.7149228130359" height="483.4" />
</g>
</g>
</g>
</svg>