<svg id="图层_1" data-name="图层 1" xmlns="http://www.w3.org/2000/svg" viewBox="0 0 512 512"><defs><style>.cls-1{fill:#fff  !important;}.cls-2{fill:#2d374b !important;}.cls-3{fill:#28a0f0 !important;}.cls-4{fill:#96bedc !important;}</style></defs><circle class="cls-1" cx="256" cy="256" r="256"/><g id="Symbol_-_Original" data-name="Symbol - Original"><path class="cls-2" d="M298.81,240.11l27.91-47.35,75.22,117.16,0,22.48-.25-154.72a11.67,11.67,0,0,0-5.39-9.28L260.92,90.5a12,12,0,0,0-10.35,0,12.78,12.78,0,0,0-1.21.7l-.47.3L117.44,167.73l-.52.23a12.05,12.05,0,0,0-1.94,1.13,11.64,11.64,0,0,0-4.68,7.39,12.5,12.5,0,0,0-.17,1.37l.21,126.08,70.06-108.6c8.82-14.4,28-19,45.89-18.78l20.94.55L123.85,375l14.54,8.37,124.86-206,55.19-.2L193.9,388.34l51.9,29.85,6.2,3.57a11.91,11.91,0,0,0,8.36.16l137.32-79.58-26.25,15.21Zm10.65,153.35L257,311.2l32-54.3,68.84,108.5Z"/><polygon class="cls-3" points="257.04 311.19 309.46 393.46 357.88 365.4 289.04 256.9 257.04 311.19"/><path class="cls-3" d="M402,332.4l0-22.48L326.72,192.76l-27.91,47.35,72.62,117.44,26.25-15.21a11.61,11.61,0,0,0,4.3-8.47Z"/><path class="cls-1" d="M86.77,353.6,123.84,375,247.22,177.1l-20.94-.55c-17.84-.25-37.06,4.38-45.88,18.78l-70.06,108.6L86.77,340.15V353.6Z"/><polygon class="cls-1" points="318.44 177.1 263.25 177.3 138.39 383.34 182.03 408.47 193.9 388.34 318.44 177.1"/><path class="cls-4" d="M425.23,176.82a35.15,35.15,0,0,0-16.5-28.26L271.54,69.66a35.68,35.68,0,0,0-31.48,0C238.91,70.23,106.63,147,106.63,147a35.11,35.11,0,0,0-19.86,29.8v163.4l23.57-36.22-.21-126.08a12.32,12.32,0,0,1,.17-1.36,11.6,11.6,0,0,1,4.68-7.4c.63-.45,135.16-78.32,135.59-78.54a12,12,0,0,1,10.35,0L396.34,168.4a11.67,11.67,0,0,1,5.39,9.29V333.87a11.35,11.35,0,0,1-4.05,8.47l-26.25,15.21-13.55,7.85-48.42,28.06-49.1,28.46a11.86,11.86,0,0,1-8.36-.16l-58.1-33.42L182,408.47l52.21,30.06,4.53,2.56c1.95,1.1,3.28,1.83,3.76,2.06A33.92,33.92,0,0,0,256.39,446a35,35,0,0,0,12.78-2.4L411.8,361a34.89,34.89,0,0,0,13.43-26.27Z"/></g></svg>