<svg id="图层_1" data-name="图层 1" xmlns="http://www.w3.org/2000/svg" viewBox="0 0 512 512"><path d="M6,287.39H9.63a4.76,4.76,0,0,0,3.58-1.13,5.21,5.21,0,0,0,1.06-3.63V229.25a4.78,4.78,0,0,0-1.06-3.45,5,5,0,0,0-3.58-1.07H6v-9.27H35.2v9.27H32.07a4.74,4.74,0,0,0-3.45,1.07,4.74,4.74,0,0,0-1.07,3.45V251.3H61.64V229.37a5.13,5.13,0,0,0-1-3.57,4.71,4.71,0,0,0-3.51-1.07H53.87v-9.27H83.19v9.27H79.56A4.93,4.93,0,0,0,76,225.8a4.74,4.74,0,0,0-1.07,3.45v53.38A5.16,5.16,0,0,0,76,286.26a4.72,4.72,0,0,0,3.57,1.13h3.63v9.15H53.87v-9.15h3.26a4.52,4.52,0,0,0,3.44-1.13,5.16,5.16,0,0,0,1.07-3.63V260.45H27.55v22.18a5.16,5.16,0,0,0,1.07,3.63,4.53,4.53,0,0,0,3.45,1.13H35.2v9.15H6Z"/><path d="M88.33,287.39h3.89a8.26,8.26,0,0,0,4.45-1,6.59,6.59,0,0,0,2.44-3.51L123,215.46H135.7l23.69,67.42a6.4,6.4,0,0,0,2.5,3.51,8.59,8.59,0,0,0,4.51,1h3.76v9.15H141.59v-9.15h6.27l-5.52-16H116.28l-5.52,16H117v9.15H88.33Zm51.51-23.93-10.4-30.58-10.66,30.58Z"/><path d="M179.44,287.52h2.88a4.76,4.76,0,0,0,3.57-1.13,5,5,0,0,0,1.07-3.51v-16L166.65,229.5a11.28,11.28,0,0,0-3.25-3.95,8.49,8.49,0,0,0-4.64-1.07h-2.88v-9H183.2v9h-1.76c-1.84,0-2.76.55-2.76,1.63a6.21,6.21,0,0,0,1,2.88l13.91,26.95L207.38,229a6.15,6.15,0,0,0,.88-2.88c0-1.08-.88-1.63-2.63-1.63h-1.88v-9h27.32v9h-2.89a8.43,8.43,0,0,0-4.63,1.07,11.18,11.18,0,0,0-3.26,3.95l-20.18,37.34v16a4,4,0,0,0,4.64,4.64h2.88v9H179.44Z"/><path d="M237.46,287.39h3.63a4.72,4.72,0,0,0,3.57-1.13,5.16,5.16,0,0,0,1.07-3.63V229.25a4.74,4.74,0,0,0-1.07-3.45,4.93,4.93,0,0,0-3.57-1.07h-3.63v-9.27h60v16.17h-12v-2.51a4.53,4.53,0,0,0-1.13-3.45,5.16,5.16,0,0,0-3.63-1.06H259V251.3h21.68v9.27H259v26.82h21.68a5.16,5.16,0,0,0,3.63-1.06,4.73,4.73,0,0,0,1.13-3.58v-2.5h12v16.29h-60Z"/><path d="M305.75,287.27h3.64A4.93,4.93,0,0,0,313,286.2a4.73,4.73,0,0,0,1.06-3.45V229.12a4.73,4.73,0,0,0-1.06-3.45,4.93,4.93,0,0,0-3.57-1.06H306.5v-9.15h27.2v9.15h-2.26a3.91,3.91,0,0,0-3.19,1.13,5.16,5.16,0,0,0-.94,3.38v26.57l28.94-31.08h-6.39v-9.15h27.57v9.65H372.8a7.88,7.88,0,0,0-3.76.75,13.37,13.37,0,0,0-3.14,2.63l-20.3,21.43,22.18,33.59a9.37,9.37,0,0,0,2.89,2.88,7.66,7.66,0,0,0,3.88.88h4.14v9.27H349.86v-9.27h7l-19.17-29.08-10.4,11.16v13.4a5.17,5.17,0,0,0,.94,3.39c.62.75,1.77,1.13,3.44,1.13h2.76v9.27h-28.7Z"/><path d="M409.55,247.59H506V215.44H475.75a1.9,1.9,0,0,1-1.9-1.89V199.43H441.7v14.11a1.9,1.9,0,0,1-1.89,1.9H409.55Z"/><path d="M506,264.41H409.55v32.15h30.26a1.89,1.89,0,0,1,1.89,1.89v14.12h32.15V298.46a1.9,1.9,0,0,1,1.9-1.9H506Z"/></svg>