<?xml version="1.0" encoding="UTF-8" standalone="no" ?>
<!DOCTYPE svg PUBLIC "-//W3C//DTD SVG 1.1//EN" "http://www.w3.org/Graphics/SVG/1.1/DTD/svg11.dtd">
<svg xmlns="http://www.w3.org/2000/svg" xmlns:xlink="http://www.w3.org/1999/xlink" version="1.1" width="350" height="350" viewBox="0 0 350 350" xml:space="preserve">
<desc>Created with Fabric.js 3.6.3</desc>
<defs>
</defs>
<g transform="matrix(1.04 0 0 1.04 175 175.14)"  >
<g style=""   >
		<g transform="matrix(1 0 0 1 -31.51 -94.5)" id="Layer_1-2"  >
<path style="stroke: rgb(240,185,11); stroke-width: 1; stroke-dasharray: none; stroke-linecap: butt; stroke-dashoffset: 0; stroke-linejoin: miter; stroke-miterlimit: 4; fill: rgb(240,185,11); fill-rule: nonzero; opacity: 1;"  transform=" translate(-136.7, -74.21)" d="M 168.2 0.71 l 41.5 42.5 L 105.2 147.71 l -41.5 -41.5 Z" stroke-linecap="round" />
</g>
		<g transform="matrix(1 0 0 1 -0.01 0)" id="Layer_1-2"  >
<path style="stroke: rgb(240,185,11); stroke-width: 1; stroke-dasharray: none; stroke-linecap: butt; stroke-dashoffset: 0; stroke-linejoin: miter; stroke-miterlimit: 4; fill: rgb(240,185,11); fill-rule: nonzero; opacity: 1;"  transform=" translate(-168.2, -168.71)" d="M 231.2 63.71 l 41.5 42.5 L 105.2 273.71 l -41.5 -41.5 Z" stroke-linecap="round" />
</g>
		<g transform="matrix(1 0 0 1 -126 0)" id="Layer_1-2"  >
<path style="stroke: rgb(240,185,11); stroke-width: 1; stroke-dasharray: none; stroke-linecap: butt; stroke-dashoffset: 0; stroke-linejoin: miter; stroke-miterlimit: 4; fill: rgb(240,185,11); fill-rule: nonzero; opacity: 1;"  transform=" translate(-42.2, -168.71)" d="M 42.2 126.71 l 41.5 42.5 l -41.5 41.5 L 0.7 169.21 Z" stroke-linecap="round" />
</g>
		<g transform="matrix(1 0 0 1 62.99 63)" id="Layer_1-2"  >
<path style="stroke: rgb(240,185,11); stroke-width: 1; stroke-dasharray: none; stroke-linecap: butt; stroke-dashoffset: 0; stroke-linejoin: miter; stroke-miterlimit: 4; fill: rgb(240,185,11); fill-rule: nonzero; opacity: 1;"  transform=" translate(-231.2, -231.71)" d="M 294.2 126.71 l 41.5 42.5 L 168.2 336.71 l -41.5 -41.5 Z" stroke-linecap="round" />
</g>
</g>
</g>
</svg>