<svg xmlns="http://www.w3.org/2000/svg" viewBox="0 0 512 512" xml:space="preserve">
  <circle cx="256" cy="256" r="250" fill="#f7b91c"/>
  <path d="M291.1 132.8c-19.2 0-34.4 6.5-45.8 19.4-11.3 12.9-18.1 29.3-20.1 49.2H336v42.9H124.2v-42.9h37.1c3.8-39.4 18.1-69.3 42.9-89.7C229 91.2 258.4 81 292.4 81s64.4 7.2 91.3 21.4v73.2l-53.4 3.7v-24.6c0-5.2-.7-9-2.1-11.2-1.4-2.3-5.2-4.6-11.2-7.1-6.2-2.4-14.8-3.6-25.9-3.6zM124.2 316.9V274H336v42.9H226.2c4.2 20.6 11.8 35.9 22.8 46 11 10.1 27 15.2 48.1 15.2s41.4-8.2 60.9-24.6l29.8 41.9c-26.2 23.7-59.3 35.6-99.4 35.6-71.5 0-113.9-38-127.1-114.1h-37.1z" fill="#fff"/>
</svg>
