<?xml version="1.0" standalone="no"?>
<!DOCTYPE svg PUBLIC "-//W3C//DTD SVG 20010904//EN"
 "http://www.w3.org/TR/2001/REC-SVG-20010904/DTD/svg10.dtd">
<svg version="1.0" xmlns="http://www.w3.org/2000/svg"
 width="500.000000pt" height="500.000000pt" viewBox="0 0 500.000000 500.000000"
 preserveAspectRatio="xMidYMid meet">

<g transform="translate(0.000000,500.000000) scale(0.100000,-0.100000)"
fill="#000000" stroke="none">
<path d="M2005 4870 c-180 -21 -425 -83 -570 -145 l-40 -18 50 -12 c34 -9 59
-24 82 -49 29 -32 33 -42 33 -93 0 -166 -202 -372 -542 -553 -112 -59 -110
-50 -31 -152 42 -53 83 -91 180 -166 l42 -33 38 58 c218 333 882 665 1568 784
226 39 452 29 593 -27 l37 -15 -25 21 c-53 44 -192 133 -281 180 -184 96 -405
170 -619 205 -114 19 -404 27 -515 15z"/>
<path d="M4135 3272 c-64 -7 -368 -56 -753 -122 -930 -160 -1479 -224 -2226
-259 l-148 -7 -32 -35 -33 -35 -6 -259 c-4 -142 -7 -418 -7 -613 l0 -355 247
7 c693 19 1200 78 2323 271 486 83 600 101 745 114 122 11 254 0 289 -23 l26
-16 0 85 c0 71 -3 88 -19 104 -68 68 -243 55 -1006 -78 -187 -33 -443 -76
-570 -95 -126 -20 -240 -39 -253 -41 -23 -6 -23 -5 -20 92 l3 98 180 28 c99
15 360 59 580 97 586 101 738 122 895 124 123 1 138 -1 173 -21 l37 -22 0 80
c0 44 -4 88 -10 98 -17 32 -83 51 -178 51 -109 0 -252 -18 -592 -76 -649 -110
-970 -163 -1027 -170 l-63 -7 0 95 0 94 183 28 c100 16 362 60 582 98 514 89
703 117 845 124 124 7 211 -5 242 -33 17 -15 18 -12 18 66 0 45 -5 91 -11 103
-19 35 -70 48 -186 48 -132 0 -265 -19 -823 -115 -433 -74 -808 -135 -836
-135 -11 0 -14 19 -14 94 l0 93 173 27 c94 15 379 63 632 106 640 110 667 114
847 114 148 1 158 0 187 -22 l31 -23 0 89 c0 82 -2 90 -26 113 -25 23 -30 24
-197 24 -95 0 -185 -1 -202 -3z m-1532 -342 c3 -13 14 -20 28 -20 21 0 21 -1
6 -18 -10 -11 -14 -26 -10 -40 5 -22 -10 -31 -22 -11 -5 6 -16 4 -32 -7 -26
-16 -26 -16 -19 9 5 21 1 29 -16 39 -23 12 -23 12 7 18 21 4 31 12 33 28 4 27
18 29 25 2z m-310 -40 c3 -13 14 -20 28 -20 21 0 21 -1 6 -18 -10 -11 -14 -26
-10 -40 6 -24 -6 -29 -25 -10 -9 9 -17 7 -33 -8 l-22 -19 7 27 c5 22 2 30 -16
40 -23 12 -23 12 7 18 21 4 31 12 33 28 4 27 18 29 25 2z m-275 -53 l27 4 -22
-19 c-15 -13 -20 -26 -16 -42 5 -19 3 -21 -15 -16 -12 4 -31 2 -43 -4 -19 -11
-20 -10 -14 11 6 17 2 27 -16 40 l-24 19 28 0 c21 0 30 7 38 28 l11 27 10 -26
c7 -21 14 -25 36 -22z m-311 -27 l28 0 -22 -18 c-17 -12 -21 -23 -16 -41 5
-21 4 -22 -16 -11 -19 10 -26 9 -43 -6 -19 -18 -19 -18 -13 9 6 21 3 32 -11
42 -18 14 -18 14 4 15 15 0 26 9 33 28 11 27 11 27 20 5 6 -16 17 -23 36 -23z
m-619 -30 c26 0 26 0 6 -15 -16 -11 -20 -21 -16 -42 5 -25 4 -27 -12 -14 -13
11 -22 12 -42 2 -23 -10 -25 -10 -19 10 4 13 1 27 -11 40 -16 18 -16 19 8 19
20 0 28 7 33 28 l7 27 10 -27 c7 -21 16 -28 36 -28z m309 10 l27 0 -22 -16
c-17 -11 -21 -21 -16 -40 6 -24 5 -25 -14 -13 -17 11 -24 11 -34 1 -19 -19
-26 -14 -20 13 3 17 -1 27 -12 31 -24 9 -19 24 8 24 16 0 26 7 30 23 l7 22 9
-22 c7 -16 18 -23 37 -23z m1081 -30 c24 0 25 -1 7 -20 -10 -11 -15 -28 -12
-40 6 -23 3 -24 -23 -10 -13 7 -21 6 -30 -5 -18 -21 -29 -18 -23 5 3 12 -2 29
-12 40 -18 19 -17 20 7 20 20 0 28 7 33 28 7 27 7 27 18 5 6 -15 19 -23 35
-23z m-338 -27 c0 -11 7 -14 25 -11 28 6 34 -9 9 -19 -12 -4 -14 -14 -10 -34
6 -30 -2 -37 -21 -18 -9 9 -18 8 -36 -4 -23 -15 -24 -15 -19 9 3 17 -2 29 -13
38 -17 12 -16 14 8 20 14 3 29 15 32 26 7 23 25 18 25 -7z m-310 -29 c0 -9 10
-14 27 -14 25 0 25 -1 9 -19 -11 -13 -15 -27 -11 -40 7 -23 -4 -28 -22 -10 -9
9 -18 8 -37 -5 -25 -16 -26 -16 -16 9 7 20 5 27 -11 38 -20 14 -20 15 5 21 13
3 28 15 31 26 7 22 25 18 25 -6z m-310 -20 c0 -9 10 -14 27 -14 25 0 25 -1 9
-19 -11 -13 -15 -27 -11 -40 7 -23 -4 -28 -22 -10 -8 8 -18 6 -37 -6 l-27 -18
10 26 c9 22 7 29 -10 41 -21 14 -21 14 2 18 13 2 28 13 34 25 10 23 25 22 25
-3z m-310 -10 c8 -19 15 -24 30 -19 24 8 27 -10 4 -19 -12 -5 -15 -14 -10 -37
6 -29 5 -29 -16 -15 -20 14 -24 14 -41 -2 -19 -16 -20 -16 -13 10 5 21 1 30
-16 42 l-22 16 27 0 c20 0 28 6 33 25 8 32 12 31 24 -1z m1393 -4 c3 -13 14
-20 28 -20 21 0 21 -1 6 -18 -10 -11 -14 -26 -10 -40 6 -24 -6 -29 -25 -10 -9
9 -17 7 -33 -8 -22 -19 -22 -19 -16 6 5 19 1 29 -16 42 l-22 18 27 0 c21 0 29
6 34 25 7 30 20 32 27 5z m-310 -40 c3 -13 14 -20 28 -20 21 0 21 -1 6 -18
-10 -11 -14 -26 -10 -40 6 -24 -6 -29 -25 -10 -9 9 -17 7 -33 -8 l-22 -19 7
27 c5 22 2 30 -16 40 -23 12 -23 12 7 18 21 4 31 12 33 28 4 27 18 29 25 2z
m-276 -50 l28 -1 -22 -18 c-15 -12 -20 -25 -16 -40 5 -21 -11 -30 -22 -11 -4
6 -16 3 -32 -7 -25 -17 -26 -17 -18 7 6 18 2 27 -16 41 l-24 19 28 0 c21 0 30
7 38 28 11 27 11 27 20 5 6 -16 17 -23 36 -23z m-310 -30 l28 0 -22 -18 c-17
-12 -21 -23 -16 -41 5 -21 4 -22 -16 -11 -19 10 -26 9 -43 -6 -19 -18 -19 -18
-13 9 6 21 3 32 -11 42 -18 14 -18 14 4 15 15 0 26 9 33 28 11 27 11 27 20 5
6 -16 17 -23 36 -23z m-619 -30 l26 0 -21 -15 c-18 -13 -21 -20 -13 -40 10
-27 2 -33 -18 -13 -9 9 -18 9 -37 0 -24 -11 -26 -11 -20 9 4 13 1 27 -11 40
-16 18 -16 19 8 19 20 0 28 7 33 28 l7 27 10 -27 c7 -21 16 -28 36 -28z m311
10 l25 0 -22 -16 c-17 -11 -21 -21 -16 -40 6 -24 5 -25 -14 -13 -17 11 -24 11
-34 1 -19 -19 -30 -14 -23 9 4 13 0 27 -11 40 -16 18 -16 19 8 19 18 0 28 7
32 23 l7 22 11 -22 c7 -15 20 -23 37 -23z m1079 -30 c24 0 25 -1 7 -20 -10
-11 -15 -28 -12 -40 6 -23 3 -24 -23 -10 -13 7 -21 6 -30 -5 -18 -21 -29 -18
-23 5 3 12 -2 29 -12 40 -18 19 -17 20 7 20 20 0 28 7 33 28 7 27 7 27 18 5 6
-15 19 -23 35 -23z m-311 -37 c26 5 31 -10 7 -20 -12 -4 -14 -14 -10 -35 5
-26 4 -28 -15 -18 -16 9 -26 8 -43 -4 -22 -14 -23 -13 -18 11 3 17 -1 30 -12
38 -15 11 -14 13 9 19 16 4 27 16 32 34 l7 27 10 -28 c8 -22 15 -28 33 -24z
m-308 -33 c25 -1 25 -1 7 -15 -13 -10 -17 -21 -12 -40 6 -24 5 -25 -14 -15
-17 9 -27 8 -45 -4 -24 -16 -24 -16 -15 9 8 20 5 27 -12 39 -21 15 -21 15 6
22 17 4 29 15 33 33 l7 26 10 -27 c7 -21 17 -28 35 -28z m-339 -6 c0 -9 10
-14 27 -14 25 0 25 -1 9 -19 -11 -13 -15 -27 -11 -40 7 -23 -4 -28 -22 -10 -8
8 -18 6 -37 -6 l-27 -18 10 26 c9 22 7 29 -10 41 -21 14 -21 14 2 18 13 2 28
13 34 25 10 23 25 22 25 -3z m-310 -8 c7 -18 14 -23 29 -19 25 6 28 -12 5 -21
-12 -5 -15 -14 -10 -38 6 -31 6 -31 -14 -13 -19 18 -21 17 -41 -1 -22 -19 -22
-19 -17 9 4 21 0 31 -16 42 -20 15 -20 15 7 15 20 0 28 6 33 25 8 31 12 31 24
1z m1393 -7 c5 -17 11 -20 32 -17 l26 5 -20 -21 c-13 -14 -18 -29 -14 -44 6
-24 -6 -29 -25 -10 -9 9 -17 7 -33 -8 -22 -19 -22 -19 -16 6 5 19 1 29 -16 42
l-22 18 27 0 c21 0 29 6 34 25 8 31 20 32 27 4z m-310 -39 c3 -13 14 -20 28
-20 21 0 21 -1 6 -18 -10 -11 -14 -26 -10 -41 5 -21 4 -22 -16 -11 -19 10 -26
9 -43 -7 -21 -18 -21 -18 -14 9 5 21 1 30 -15 42 -21 14 -21 14 7 18 21 2 30
9 32 26 4 27 18 29 25 2z m-276 -50 l28 -1 -22 -18 c-15 -12 -20 -25 -16 -40
5 -21 -11 -30 -22 -11 -4 6 -16 3 -32 -7 -25 -17 -26 -17 -18 7 6 18 2 27 -16
41 l-24 19 28 0 c21 0 30 7 38 28 11 27 11 27 20 5 6 -16 17 -23 36 -23z
m-310 -30 l28 0 -22 -18 c-17 -12 -21 -23 -16 -41 5 -21 4 -22 -16 -11 -19 10
-26 9 -43 -6 -19 -18 -19 -18 -13 9 6 21 3 32 -11 42 -18 14 -18 14 4 15 15 0
26 9 33 28 11 27 11 27 20 5 6 -16 17 -23 36 -23z m-619 -30 l26 0 -21 -15
c-18 -13 -21 -20 -13 -40 10 -28 -1 -33 -20 -10 -10 12 -15 12 -37 -2 -25 -17
-25 -17 -18 6 5 15 1 29 -11 42 -16 18 -16 19 8 19 20 0 28 7 33 28 l7 27 10
-27 c7 -21 16 -28 36 -28z m311 10 l25 0 -22 -16 c-17 -11 -21 -21 -16 -40 6
-24 5 -25 -14 -13 -17 11 -24 11 -34 1 -19 -19 -30 -14 -23 9 4 13 0 27 -11
40 -16 18 -16 19 8 19 18 0 28 7 32 23 l7 22 11 -22 c7 -15 20 -23 37 -23z
m1079 -30 c24 0 25 -1 7 -20 -10 -11 -15 -28 -12 -40 6 -23 3 -24 -23 -10 -13
7 -21 6 -30 -5 -18 -21 -29 -18 -23 5 3 12 -2 29 -12 40 -18 19 -17 20 7 20
20 0 28 7 33 28 7 27 7 27 18 5 6 -15 19 -23 35 -23z m-311 -37 c26 5 31 -10
7 -20 -12 -4 -14 -14 -10 -35 5 -26 4 -28 -15 -18 -16 9 -26 8 -43 -4 -22 -14
-23 -13 -18 11 3 18 -1 30 -13 39 -16 12 -15 14 9 20 17 4 29 15 33 33 l7 26
10 -28 c8 -22 15 -28 33 -24z m-308 -33 c25 -1 25 -1 7 -15 -13 -10 -17 -21
-12 -40 6 -24 5 -25 -14 -15 -17 9 -27 8 -45 -4 -24 -16 -24 -16 -15 9 8 20 5
27 -12 39 -21 15 -21 15 6 22 17 4 29 15 33 33 l7 26 10 -27 c7 -21 17 -28 35
-28z m-339 -6 c0 -9 10 -14 27 -14 25 0 25 -1 9 -19 -11 -13 -15 -27 -11 -40
7 -23 -4 -28 -22 -10 -9 9 -18 8 -37 -5 -25 -16 -25 -16 -16 8 7 18 5 28 -6
37 -14 11 -12 14 10 26 14 8 26 21 26 29 0 8 5 12 10 9 6 -3 10 -13 10 -21z
m-310 -10 c0 -8 10 -14 25 -14 28 0 33 -15 9 -24 -12 -5 -15 -14 -10 -38 6
-31 6 -31 -14 -13 -16 14 -23 16 -32 7 -18 -18 -30 -15 -26 6 2 11 -3 26 -11
35 -12 15 -11 17 8 17 14 0 23 8 27 25 6 26 24 25 24 -1z m1393 -5 c5 -17 11
-20 32 -17 l26 5 -20 -21 c-14 -15 -18 -29 -14 -45 5 -21 4 -22 -16 -11 -19
10 -26 8 -43 -7 -21 -18 -21 -18 -15 7 5 19 1 29 -16 42 l-22 18 27 0 c21 0
29 6 34 25 8 31 20 32 27 4z m-310 -39 c3 -13 14 -20 28 -20 21 0 21 -1 6 -18
-10 -11 -14 -26 -10 -41 5 -21 4 -22 -16 -11 -19 10 -26 9 -43 -7 -21 -18 -21
-18 -14 9 5 21 1 30 -15 42 -21 14 -21 14 7 18 21 2 30 9 32 26 4 27 18 29 25
2z m-276 -50 l28 -1 -22 -18 c-15 -12 -20 -25 -16 -40 5 -22 -11 -29 -22 -10
-5 7 -15 5 -32 -6 -24 -16 -25 -16 -18 6 6 17 2 27 -16 40 l-24 19 28 0 c21 0
30 7 38 28 11 27 11 27 20 5 6 -16 17 -23 36 -23z m-310 -30 l27 0 -22 -16
c-17 -12 -21 -21 -16 -41 6 -23 5 -24 -15 -13 -19 10 -26 8 -43 -7 -21 -18
-21 -18 -14 11 5 21 2 31 -10 41 -16 11 -15 13 8 18 15 4 29 17 32 29 l7 23 9
-22 c7 -16 18 -23 37 -23z m-309 -20 c26 0 26 0 6 -15 -16 -10 -20 -22 -16
-41 4 -24 3 -25 -16 -13 -17 11 -24 11 -34 1 -19 -19 -30 -14 -23 9 4 13 0 27
-11 40 -16 18 -16 19 8 19 20 0 28 7 33 28 l7 27 10 -27 c7 -21 16 -28 36 -28z
m-310 -10 c26 0 26 0 6 -15 -16 -10 -20 -22 -16 -42 4 -26 3 -27 -13 -11 -16
15 -20 15 -42 1 -24 -16 -24 -16 -17 11 5 20 2 31 -12 41 -18 14 -18 14 7 15
21 0 29 6 34 28 l7 27 10 -27 c7 -21 16 -28 36 -28z m1390 -20 c24 0 25 -1 7
-20 -10 -11 -15 -28 -12 -40 6 -23 3 -24 -23 -10 -13 7 -21 6 -30 -5 -18 -22
-32 -18 -25 6 4 13 0 27 -11 40 -16 18 -16 19 5 19 13 0 26 10 33 26 12 26 12
26 22 5 6 -13 18 -21 34 -21z m-311 -35 c26 6 32 -10 7 -19 -12 -5 -15 -14
-10 -36 5 -28 4 -30 -15 -20 -16 9 -26 8 -45 -5 -24 -16 -25 -16 -18 11 5 20
2 31 -11 40 -16 12 -15 14 9 20 17 4 29 15 33 33 l7 26 10 -28 c8 -23 15 -27
33 -22z m-310 -32 c26 5 31 -10 7 -20 -12 -4 -14 -14 -10 -35 5 -26 4 -28 -15
-18 -16 9 -26 8 -44 -4 -24 -16 -24 -16 -15 9 7 20 5 27 -10 38 -22 15 -17 27
11 27 12 0 21 10 26 28 l7 27 10 -28 c8 -22 15 -28 33 -24z m-337 -9 c0 -9 10
-14 27 -14 25 0 25 -1 9 -19 -11 -13 -15 -27 -11 -40 7 -23 -4 -28 -22 -10 -8
8 -17 8 -33 -1 -19 -10 -21 -9 -18 8 2 10 -3 26 -11 35 -11 15 -10 18 13 27
14 5 26 17 26 25 0 9 5 13 10 10 6 -3 10 -13 10 -21z m-310 -10 c0 -8 10 -14
25 -14 28 0 33 -15 9 -24 -12 -5 -15 -14 -10 -38 6 -31 6 -31 -14 -13 -16 14
-23 16 -32 7 -18 -18 -30 -15 -26 6 2 11 -3 26 -11 35 -12 15 -11 17 8 17 14
0 23 8 27 25 6 26 24 25 24 -1z m1393 -5 c5 -18 11 -20 34 -14 l28 7 -22 -24
c-16 -16 -20 -31 -16 -47 5 -21 4 -22 -16 -11 -19 10 -26 8 -43 -7 -21 -18
-21 -18 -15 7 5 19 1 29 -16 42 l-22 18 27 0 c21 0 29 6 34 25 8 31 20 32 27
4z m-310 -40 c5 -17 11 -20 32 -17 l26 5 -20 -21 c-14 -15 -18 -29 -14 -45 5
-21 4 -22 -16 -11 -19 10 -26 9 -43 -7 -21 -18 -21 -18 -14 9 5 21 1 30 -16
42 l-22 16 27 0 c20 0 28 6 33 25 8 31 20 32 27 4z m-276 -49 l28 0 -22 -18
c-16 -12 -21 -23 -17 -39 6 -23 -9 -32 -21 -12 -5 7 -15 5 -32 -6 -24 -16 -25
-16 -18 6 6 17 2 27 -16 40 l-24 19 28 0 c21 0 30 7 38 28 11 27 11 27 20 5 6
-16 17 -23 36 -23z m-310 -30 l27 0 -22 -16 c-17 -12 -21 -21 -16 -41 6 -23 5
-24 -15 -13 -19 10 -26 8 -43 -7 -21 -18 -21 -18 -14 11 5 21 2 31 -10 41 -16
11 -15 13 8 18 15 4 29 17 32 29 l7 23 9 -22 c7 -16 18 -23 37 -23z m-309 -20
l26 0 -21 -15 c-18 -13 -21 -20 -13 -40 11 -28 8 -30 -20 -13 -15 10 -22 10
-32 0 -19 -19 -30 -14 -23 9 4 13 0 27 -11 40 -16 18 -16 19 8 19 20 0 28 7
33 28 l7 27 10 -27 c7 -21 16 -28 36 -28z m-310 -10 l26 0 -21 -15 c-19 -13
-21 -20 -12 -42 9 -25 9 -25 -13 -11 -20 14 -25 14 -46 0 -23 -15 -23 -14 -16
12 5 20 2 31 -12 41 -18 14 -18 14 7 15 21 0 29 6 34 28 l7 27 10 -27 c7 -21
16 -28 36 -28z"/>
<path d="M4195 1784 c-124 -15 -310 -45 -860 -139 -923 -158 -1478 -219 -2198
-241 l-207 -6 0 -89 0 -89 118 0 c537 0 1318 81 2167 225 176 30 426 72 555
94 326 55 456 71 587 71 113 0 177 -14 195 -43 4 -7 8 27 8 74 0 71 -4 91 -20
111 -38 48 -137 58 -345 32z"/>
<path d="M4255 1420 c-108 -11 -467 -68 -820 -130 -927 -162 -1487 -228 -2157
-252 l-338 -12 0 -89 0 -90 258 6 c657 17 1252 86 2319 271 571 99 647 109
825 110 148 1 158 0 187 -22 l31 -23 0 81 c0 45 -5 90 -10 101 -26 47 -137 66
-295 49z"/>
<path d="M4080 1025 c-85 -13 -236 -37 -335 -54 -855 -147 -1152 -193 -1535
-236 -426 -47 -850 -75 -1142 -75 l-128 0 0 -46 c0 -58 25 -111 64 -136 30
-19 51 -19 891 -14 473 2 952 9 1065 15 652 34 994 68 1259 127 164 37 246 70
298 119 l43 42 0 107 c0 59 -5 116 -11 128 -6 11 -26 26 -44 34 -52 21 -243
16 -425 -11z"/>
</g>
</svg>
