<?xml version="1.0" encoding="UTF-8" standalone="no" ?>
<!DOCTYPE svg PUBLIC "-//W3C//DTD SVG 1.1//EN" "http://www.w3.org/Graphics/SVG/1.1/DTD/svg11.dtd">
<svg xmlns="http://www.w3.org/2000/svg" xmlns:xlink="http://www.w3.org/1999/xlink" version="1.1" width="338" height="294" viewBox="0 0 338 294" xml:space="preserve">
<desc>Created with Fabric.js 3.6.3</desc>
<defs>
</defs>
<g transform="matrix(1 0 0 1 169.5 147.5)"  >
<g style=""   >
		<g transform="matrix(1 0 0 1 0.22 0.12)"  >
<path style="stroke: none; stroke-width: 1; stroke-dasharray: none; stroke-linecap: butt; stroke-dashoffset: 0; stroke-linejoin: miter; stroke-miterlimit: 4; fill: rgb(80,175,149); fill-rule: evenodd; opacity: 1;"  transform=" translate(-169.72, -147.63)" d="M 62.15 1.45 l -61.89 130 a 2.52 2.52 0 0 0 0.54 2.94 L 167.95 294.56 a 2.55 2.55 0 0 0 3.53 0 L 338.63 134.4 a 2.52 2.52 0 0 0 0.54 -2.94 l -61.89 -130 A 2.5 2.5 0 0 0 275 0 H 64.45 a 2.5 2.5 0 0 0 -2.3 1.45 h 0 Z" stroke-linecap="round" />
</g>
		<g transform="matrix(1 0 0 1 0.2 -10.01)"  >
<path style="stroke: none; stroke-width: 1; stroke-dasharray: none; stroke-linecap: butt; stroke-dashoffset: 0; stroke-linejoin: miter; stroke-miterlimit: 4; fill: rgb(255,255,255); fill-rule: evenodd; opacity: 1;"  transform=" translate(-169.7, -137.5)" d="M 191.19 144.8 v 0 c -1.2 0.09 -7.4 0.46 -21.23 0.46 c -11 0 -18.81 -0.33 -21.55 -0.46 v 0 c -42.51 -1.87 -74.24 -9.27 -74.24 -18.13 s 31.73 -16.25 74.24 -18.15 v 28.91 c 2.78 0.2 10.74 0.67 21.74 0.67 c 13.2 0 19.81 -0.55 21 -0.66 v -28.9 c 42.42 1.89 74.08 9.29 74.08 18.13 s -31.65 16.24 -74.08 18.12 h 0 Z m 0 -39.25 V 79.68 h 59.2 V 40.23 H 89.21 V 79.68 H 148.4 v 25.86 c -48.11 2.21 -84.29 11.74 -84.29 23.16 s 36.18 20.94 84.29 23.16 v 82.9 h 42.78 V 151.83 c 48 -2.21 84.12 -11.73 84.12 -23.14 s -36.09 -20.93 -84.12 -23.15 h 0 Z m 0 0 h 0 Z" stroke-linecap="round" />
</g>
</g>
</g>
</svg>