<svg xmlns="http://www.w3.org/2000/svg" viewBox="0 0 512 512" xml:space="preserve">
  <circle cx="256" cy="256" r="250" fill="#f7b91c"/>
  <path d="M294.4 81v48.2c5.8 1.3 11.3 3 16.6 5.1 5.3 2.1 10.3 4.2 15.1 6.2-2.3 5.8-4.7 11.5-7.2 17.1-2.5 5.7-4.9 11.2-7.2 16.8-7.3-3.5-15.4-6.9-24.3-10.2-8.9-3.3-19.2-4.9-30.7-4.9-12.8 0-23.3 2.6-31.5 7.7-8.2 5.2-12.2 12.6-12.2 22.4 0 23.9 21.5 42.1 64.6 54.8 43.1 12.7 64.6 37.7 64.6 75.2 0 14.1-4.2 26.7-12.6 37.9-8.4 11.2-20.2 19.5-35.2 25.1V431l-29.4-2.6v-39.9c-2.5.2-5.2.5-8.1.8-2.9.2-5.8.4-8.9.4h-5.7V431h-29v-46.3c-8.5-2-16.4-4.5-23.5-7.3-7.2-2.9-12.4-5.6-15.6-8.1l9.8-33.9c7.3 3.8 16.9 7.5 28.8 11.3 11.9 3.8 23.5 5.7 34.8 5.7 16.8 0 29.5-2.9 38.1-8.7 8.5-5.8 12.8-13.7 12.8-23.7 0-22.9-21.5-40.5-64.4-52.9-42.9-12.4-64.4-38-64.4-76.7 0-13.3 3.9-25.2 11.7-35.8 7.8-10.5 18.5-18.6 32-24.1V81l29 1.5v41.1c2.3-.2 4.6-.5 7-.8 2.4-.2 4.6-.4 6.6-.4 1.8 0 3.3.1 4.7.2 1.4.1 2.8.3 4.3.6V81h29.4z" fill="#fff"/>
</svg>
