<?xml version="1.0" encoding="UTF-8"?>
<svg id="_图层_1" data-name="图层 1" xmlns="http://www.w3.org/2000/svg" viewBox="0 0 512 512">
  <defs>
    <style>
      .cls-1 {
        fill: #f7b91c;
      }

      .cls-2 {
        fill: #fff;
      }
    </style>
  </defs>
  <circle class="cls-1" cx="256" cy="256" r="256"/>
  <path class="cls-2" d="M278.16,200.17c0-2.06-.47-5.14-1.4-9.26-.94-4.11-2.06-8.84-3.37-14.17-1.31-5.33-2.81-11.03-4.49-17.11-1.68-6.08-3.18-12.02-4.49-17.81-1.31-5.8-2.43-11.22-3.37-16.27-.94-5.05-1.4-9.26-1.4-12.62,0-4.3,1.21-7.81,3.65-10.52,2.43-2.71,5.51-4.81,9.26-6.31,3.74-1.49,7.76-2.52,12.06-3.09,4.3-.56,8.42-.84,12.34-.84,4.86,0,9.58,1.36,14.17,4.07,4.58,2.71,7.72,7.53,9.4,14.45,2.06,7.29,3.79,14.64,5.19,22.02,1.4,7.39,2.67,14.59,3.79,21.6,1.12,7.01,2.2,13.8,3.23,20.34,1.03,6.55,2.1,12.62,3.23,18.24,1.12,4.49,2.57,8.04,4.35,10.66,1.78,2.62,3.93,4.63,6.45,6.03,2.52,1.4,5.23,2.29,8.14,2.67,2.9,.38,6.03,.56,9.4,.56,3.74,0,7.76-.37,12.06-1.12,4.3-.75,8.51-1.12,12.62-1.12,2.62,0,5.19,.42,7.72,1.26,2.52,.84,4.81,2.34,6.87,4.49,2.06,2.15,3.69,5.1,4.91,8.84,1.21,3.74,1.82,8.51,1.82,14.31,0,4.87-.94,8.93-2.81,12.2-1.87,3.27-5.43,5.47-10.66,6.59l-10.1,2.24c-3.18,.56-6.13,.98-8.84,1.26-2.71,.28-6.13,.61-10.24,.98-8.79,.94-13.19,4.77-13.19,11.5,0,.56,.37,3.09,1.12,7.57,.75,4.49,1.73,10.06,2.95,16.69,1.21,6.64,2.57,13.94,4.07,21.88,1.49,7.95,2.95,15.57,4.35,22.86,1.4,7.29,2.67,13.8,3.79,19.5,1.12,5.71,1.96,9.78,2.52,12.2,.93,4.12,1.68,7.29,2.24,9.54,.56,2.24,.84,5.33,.84,9.26,0,2.99-.84,5.94-2.52,8.84-1.68,2.9-4.16,5.47-7.43,7.72-3.27,2.24-7.25,4.07-11.92,5.47-4.68,1.4-10.01,2.1-15.99,2.1-6.55,0-11.27-2.01-14.17-6.03-2.9-4.02-4.91-8.65-6.03-13.89-2.43-9.72-4.73-19.73-6.87-30.02-2.15-10.28-4.21-20.48-6.17-30.58-1.96-10.1-3.84-19.96-5.61-29.6-1.78-9.63-3.41-18.84-4.91-27.63-.94-4.11-2.62-7.15-5.05-9.12-2.43-1.96-5.52-2.95-9.26-2.95-12.72,0-25.49,.42-38.29,1.26-12.81,.84-25.39,1.54-37.73,2.1-4.3,.38-7.67,1.78-10.1,4.21-2.43,2.43-3.65,5.61-3.65,9.54,0,8.79,.09,17.49,.28,26.09,.18,8.6,.28,17.39,.28,26.37,0,10.29-.14,20.86-.42,31.7-.28,10.85-.7,21.32-1.26,31.42-.38,3.74-1.45,6.83-3.23,9.26-1.78,2.43-4.02,4.39-6.73,5.89-2.71,1.49-5.8,2.52-9.26,3.09-3.46,.56-6.97,.84-10.52,.84-8.79,0-15.62-1.45-20.48-4.35-4.87-2.9-7.29-7.81-7.29-14.73,0-10.47,.28-21.41,.84-32.82,.56-11.41,.84-22.91,.84-34.51,0-7.86-.1-15.47-.28-22.86-.19-7.39-.28-15.01-.28-22.86,0-3.55-.8-6.22-2.38-8-1.59-1.78-3.51-3.23-5.75-4.35-2.24-1.12-4.77-2.2-7.57-3.23-2.81-1.03-5.33-2.57-7.57-4.63-2.24-2.06-4.16-5.05-5.75-8.98-1.59-3.93-2.38-9.35-2.38-16.27,0-3.74,.7-6.68,2.1-8.84,1.4-2.15,3.18-3.88,5.33-5.19,2.15-1.31,4.44-2.38,6.87-3.23,2.43-.84,4.72-1.92,6.87-3.23,2.15-1.31,3.93-2.95,5.33-4.91,1.4-1.96,2.1-4.81,2.1-8.56,0-2.24-.1-4.91-.28-8-.19-3.09-.38-6.03-.56-8.84-.19-2.81-.38-5.28-.56-7.43-.19-2.15-.28-3.6-.28-4.35,0-6.36,.89-11.45,2.67-15.29,1.78-3.83,3.97-6.73,6.59-8.7,2.62-1.96,5.56-3.27,8.84-3.93,3.27-.65,6.4-.98,9.4-.98,11.22,0,19.03,2.1,23.43,6.31,4.39,4.21,6.78,10.34,7.15,18.38l1.12,29.46c.37,4.49,1.59,7.9,3.65,10.24,2.06,2.34,5.42,3.51,10.1,3.51l63.68-2.24c5.42-.37,8.93-1.87,10.52-4.49,1.59-2.62,2.38-6.54,2.38-11.78Z"/>
</svg>