<?xml version="1.0" encoding="utf-8"?>
<!-- Generator: Adobe Illustrator 26.4.1, SVG Export Plug-In . SVG Version: 6.00 Build 0)  -->
<svg version="1.1" id="图层_1" xmlns="http://www.w3.org/2000/svg" xmlns:xlink="http://www.w3.org/1999/xlink" x="0px" y="0px"
	 viewBox="0 0 512 512" style="enable-background:new 0 0 512 512;" xml:space="preserve">
<style type="text/css">
	.st0{fill:#EB5C20;}
	.st1{fill:#1E5D91;}
	.st2{fill:#E29227;}
	.st3{fill:#1C9965;}
	.st4{fill:#70BA33;}
	.st5{fill:#C6224E;}
	.st6{fill:#0E0304;}
	.st7{fill:#29292C;}
	.st8{fill:#B5B5B6;}
	.st9{fill:#2E3032;}
	.st10{fill:#1A1A1B;}
	.st11{fill:#757579;}
	.st12{fill:#DF5B23;}
	.st13{fill:#221F20;}
	.st14{fill:#F1AA43;}
	.st15{fill:#EB9326;}
	.st16{fill:#EE9F38;}
	.st17{fill:#E8891D;}
	.st18{fill:#EF9E36;}
	.st19{fill:#F9C88E;}
	.st20{fill:#CB838E;}
	.st21{fill:#F7BF75;}
	.st22{fill:#2F2833;}
	.st23{fill:#403944;}
	.st24{fill-rule:evenodd;clip-rule:evenodd;fill:#CCBCB1;}
	.st25{fill-rule:evenodd;clip-rule:evenodd;fill:#393939;}
	.st26{fill-rule:evenodd;clip-rule:evenodd;fill:#EF9839;}
	.st27{fill-rule:evenodd;clip-rule:evenodd;fill:#EF993A;}
	.st28{fill-rule:evenodd;clip-rule:evenodd;fill:#D07A32;}
	.st29{fill-rule:evenodd;clip-rule:evenodd;fill:#E1893D;}
	.st30{fill-rule:evenodd;clip-rule:evenodd;fill:#E28C38;}
	.st31{fill-rule:evenodd;clip-rule:evenodd;fill:#E18B3C;}
	.st32{fill-rule:evenodd;clip-rule:evenodd;fill:#DF7F24;}
	.st33{fill-rule:evenodd;clip-rule:evenodd;fill:#DDCCC2;}
	.st34{fill-rule:evenodd;clip-rule:evenodd;fill:#DF8C38;}
	.st35{fill-rule:evenodd;clip-rule:evenodd;fill:#8B5930;}
	.st36{fill:#1C5AA8;}
	.st37{fill:#FFFFFF;}
	.st38{fill:#2156A6;}
	.st39{fill:#E7B41E;}
	.st40{fill:#298CCD;}
	.st41{fill:#123443;}
	.st42{fill:#B8266A;}
	.st43{fill:#1B4B68;}
	.st44{fill:#040000;}
	.st45{fill:#1C4157;}
	.st46{fill:#4A6894;}
	.st47{fill:#343535;}
	.st48{fill:#3E5375;}
	.st49{fill:#6CAACE;}
	.st50{fill:#335C85;}
	.st51{fill:#5294B1;}
	.st52{fill-rule:evenodd;clip-rule:evenodd;fill:#5255A3;}
	.st53{fill-rule:evenodd;clip-rule:evenodd;fill:#2B60AC;}
	.st54{fill:#2B60AC;}
	.st55{fill:#E8412E;}
	.st56{fill:#E83F21;}
	.st57{fill:#E33E28;}
	.st58{fill:#E84138;}
	.st59{fill:#E94526;}
	.st60{fill:#E94423;}
	.st61{fill:#E9481F;}
	.st62{fill:#E94522;}
	.st63{fill:#E9461F;}
	.st64{fill:#E84236;}
	.st65{fill:#E9471E;}
	.st66{fill:#E6411D;}
	.st67{fill:#E8412F;}
	.st68{fill:#132533;}
	.st69{fill:url(#SVGID_1_);}
	.st70{fill:url(#SVGID_00000162330419295811048370000009580356136952677770_);}
	.st71{fill:#CBCFD7;}
	.st72{fill:url(#SVGID_00000051366016471787617800000004304775229322323093_);}
	.st73{fill:url(#SVGID_00000057136213225506329890000015635072171521876645_);}
	.st74{fill:#36B8B7;}
	.st75{fill:#3EB4AD;}
	.st76{fill:#3AB8B9;}
	.st77{fill:#56BAB0;}
	.st78{fill:#65BBB2;}
	.st79{fill:#32B7B0;}
	.st80{fill:#2EB6AE;}
	.st81{fill:#48B6BC;}
	.st82{fill:#4DB5BD;}
	.st83{fill:#3EB4AE;}
	.st84{fill:#57BBB1;}
	.st85{fill:#060909;}
	.st86{fill:#061014;}
	.st87{fill:#FAFAFB;}
	.st88{fill:#F6F7F7;}
	.st89{fill:#F7F7F7;}
	.st90{fill:#F6F6F6;}
	.st91{fill:#7CB8BD;}
	.st92{fill:#3FB5B7;}
	.st93{fill:#4DB6B9;}
	.st94{fill:#F4F5F5;}
	.st95{fill:#F5F5F5;}
	.st96{fill:#070505;}
	.st97{fill:#F4F3F3;}
	.st98{fill:#050202;}
	.st99{fill:#71BCBA;}
	.st100{fill:#73BBB8;}
	.st101{fill:#76BEBC;}
	.st102{fill:#83B8B8;}
	.st103{fill:#3DB9B5;}
	.st104{fill:#40BABA;}
	.st105{fill:#36B8B6;}
	.st106{fill:#28B6B2;}
	.st107{fill:#231815;stroke:#FFFFFF;stroke-width:0.187;stroke-miterlimit:10;}
	.st108{fill:#023592;}
	.st109{fill-rule:evenodd;clip-rule:evenodd;fill:#60BEA1;}
	.st110{fill:#FFFFFF;stroke:#FFFFFF;stroke-width:0.187;stroke-miterlimit:10;}
	.st111{fill:#7C2B7F;}
	.st112{fill:#752C7F;}
	.st113{fill:#EE8753;}
	.st114{fill:#F09D47;}
	.st115{fill:#EF944D;}
	.st116{fill:#EE8C51;}
	.st117{fill:#EC795A;}
	.st118{fill:#F0984B;}
	.st119{fill:#EB715E;}
	.st120{fill:#9E2F7F;}
	.st121{fill:#AA2E7E;}
	.st122{fill:#EC7C5D;}
	.st123{fill:#C4337F;}
	.st124{fill:#932D7F;}
	.st125{fill:#A42F7E;}
	.st126{fill:#BD317E;}
	.st127{fill:#B8327F;}
	.st128{fill:#B2317E;}
	.st129{fill:#992D7F;}
	.st130{fill:#CA347F;}
	.st131{fill:#8C2D7F;}
	.st132{fill:#D0357F;}
	.st133{fill:#AE307E;}
	.st134{fill:#EC765E;}
	.st135{fill:#DB377F;}
	.st136{fill:#E44676;}
	.st137{fill:#862C7E;}
	.st138{fill:#E96B64;}
	.st139{fill:#D6357F;}
	.st140{fill:#E96B62;}
	.st141{fill:#E13A80;}
	.st142{fill:#E13D7E;}
	.st143{fill:#822B7F;}
	.st144{fill:#E54D75;}
	.st145{fill:#33A2D3;}
	.st146{fill:#E3417B;}
	.st147{fill:#E65371;}
	.st148{fill:#E65B6C;}
	.st149{fill:#E96764;}
	.st150{fill:#E85F68;}
	.st151{fill:#E96366;}
	.st152{fill:#EA6F67;}
	.st153{fill:#E6566D;}
	.st154{fill:#EA6C6C;}
	.st155{fill:#E7606E;}
	.st156{fill:#EB7563;}
	.st157{fill:#EC7C69;}
	.st158{fill:#E8687D;}
	.st159{fill:#E0EDF7;}
	.st160{fill:#E9676E;}
	.st161{fill:#E9B536;}
	.st162{fill:#864690;}
	.st163{fill:#334190;}
	.st164{fill:#6A438D;}
	.st165{fill:#6B438D;}
	.st166{fill:#6B448D;}
	.st167{fill:#3A4291;}
	.st168{fill:#81458F;}
	.st169{fill:#644390;}
	.st170{fill:#9E458E;}
	.st171{fill:#98468F;}
	.st172{fill:#92468F;}
	.st173{fill:#8D458F;}
	.st174{fill:#9B468F;}
	.st175{fill:#90468E;}
	.st176{fill:#9C468F;}
	.st177{fill:#A3458D;}
	.st178{fill:#4E4491;}
	.st179{fill:#434291;}
	.st180{fill:#534290;}
	.st181{fill:#6E4591;}
	.st182{fill:#754490;}
	.st183{fill:#5F4390;}
	.st184{fill:#7B4490;}
	.st185{fill:#584390;}
	.st186{fill:#594390;}
	.st187{fill:#474392;}
	.st188{fill:#B3458C;}
	.st189{fill:#6A4491;}
	.st190{fill:#AE468C;}
	.st191{fill:#97458F;}
	.st192{fill:#B6468C;}
	.st193{fill:#9B458E;}
	.st194{fill:#C4468C;}
	.st195{fill:#BD478C;}
	.st196{fill:#AA468D;}
	.st197{fill:#A7468D;}
	.st198{fill:#B3468D;}
	.st199{fill:#B0458C;}
	.st200{fill:#BC468C;}
	.st201{fill:#AF458C;}
	.st202{fill:#B9468C;}
	.st203{fill:#BD468B;}
	.st204{fill:#BA468C;}
	.st205{enable-background:new    ;}
	.st206{fill:#1D1E1D;}
	.st207{fill:url(#Fill_1_00000078003688386175664910000015126899452171435658_);}
	.st208{fill:url(#Fill_3_00000078028557166144300570000006263267149380316549_);}
	.st209{fill:url(#Fill_5_00000083057118783457444640000011783067675737631902_);}
	.st210{fill:#1E201F;}
	.st211{fill:#3AB9B5;}
	.st212{fill:#27B4B0;}
	.st213{fill:#009694;}
	.st214{fill:#554B9D;}
	.st215{clip-path:url(#SVGID_00000182519754365838989160000013605204572370372021_);}
	.st216{fill:#070181;}
	.st217{fill:#FEC701;}
	.st218{fill:#231F8F;}
	.st219{fill:#20282A;}
	.st220{fill:#060081;}
	.st221{fill:#FE8A01;}
	.st222{fill:#FE9301;}
	.st223{fill:#FE8E02;}
	.st224{fill:#FE9800;}
	.st225{fill:#FDC303;}
	.st226{fill:#FE9106;}
	.st227{fill:#FEBD01;}
	.st228{fill:#FDB700;}
	.st229{fill:#FEC202;}
	.st230{fill:#FEB200;}
	.st231{fill:#E6FBF8;}
	.st232{fill:#94AED1;}
	.st233{fill:#C4E6E7;}
	.st234{fill:#B6D9E6;}
	.st235{fill:#D2F8F4;}
	.st236{fill:#AFD0E2;}
	.st237{fill:#FED005;}
	.st238{fill:#0241A9;}
	.st239{fill:#052C9B;}
	.st240{fill:#CFF7F4;}
	.st241{fill:#93ADD1;}
	.st242{fill:#D0F8F4;}
	.st243{fill:#E6FBF9;}
	.st244{fill:#FDC802;}
	.st245{fill:#B0D1E2;}
	.st246{fill:#AFD1E2;}
	.st247{fill:#ADCEE9;}
	.st248{fill:#CDF3FC;}
	.st249{fill:#AECFE9;}
	.st250{fill:#CDF4F2;}
	.st251{fill:#CBF2F1;}
	.st252{fill:#FBB61F;}
	.st253{fill:#FAAE29;}
	.st254{fill:#A3C2DB;}
	.st255{fill:#B1D3E3;}
	.st256{fill:#C6E0D9;}
	.st257{fill:#C5D7E8;}
	.st258{fill:#C1E6EC;}
	.st259{fill:#A7C8DE;}
	.st260{fill:#A7B8D8;}
	.st261{fill:#C4DEE9;}
	.st262{fill:#9FBDD9;}
	.st263{fill:#FE9D01;}
	.st264{fill:#FEAF02;}
	.st265{fill:#CFF5F1;}
	.st266{fill:#0D0884;}
	.st267{fill:#CFF6F3;}
	.st268{fill:#FEA500;}
	.st269{fill:#FEA000;}
	.st270{fill:#FEAB01;}
	.st271{fill:#738ECF;}
	.st272{fill:#062D9C;}
	.st273{fill:#728DCF;}
	.st274{fill:#FABD15;}
	.st275{fill:#FDBF08;}
	.st276{fill:#FAB91A;}
	.st277{fill:#F9C107;}
	.st278{fill:#FFC000;}
	.st279{fill-rule:evenodd;clip-rule:evenodd;fill:#FFFFFF;}
	.st280{fill:#10B981;}
	.st281{fill:#F7B91C;}
	.st282{fill:#EF4444;}
	.st283{fill:#353535;}
	.st284{fill:#171717;}
	.st285{fill:#2F49D1;}
	.st286{fill:#1E1E1E;}
	.st287{fill:#FF0060;}
	.st288{fill:#FF6000;}
	.st289{fill:#DEFF00;}
	.st290{fill:#7EFF00;}
	.st291{fill:#1EFF00;}
	.st292{fill:#00FF42;}
	.st293{fill:#00FFA2;}
	.st294{fill:#00FCFF;}
	.st295{fill:#00A2FF;}
	.st296{fill:#0042FF;}
	.st297{fill:#1E00FF;}
	.st298{fill:#7E00FF;}
	.st299{fill:#DE00FF;}
	.st300{fill:#FF00C0;}
	.st301{fill:#FF0000;}
	.st302{fill:none;stroke:#000000;stroke-width:1;stroke-linejoin:round;stroke-miterlimit:5.774;}
	.st303{fill:none;stroke:#000000;stroke-width:1;stroke-miterlimit:5.774;}
	.st304{fill:#FF91E4;}
	.st305{fill:#FFBA91;}
	.st306{fill:#FF9191;}
	.st307{fill:#FF91BA;}
	.st308{fill:#370070;}
	.st309{fill:#620070;}
	.st310{fill:#700054;}
	.st311{fill:#70002A;}
	.st312{fill:#700000;}
	.st313{fill:#702A00;}
	.st314{fill:#705400;}
	.st315{fill:#627000;}
	.st316{fill:#377000;}
	.st317{fill:#0D7000;}
	.st318{fill:#00701D;}
	.st319{fill:#007047;}
	.st320{fill:#006F70;}
	.st321{fill:#004770;}
	.st322{fill:#001D70;}
	.st323{fill:#0D0070;}
	.st324{fill:#F191FF;}
	.st325{fill:#C791FF;}
	.st326{fill:#9E91FF;}
	.st327{fill:#91ADFF;}
	.st328{fill:#91D7FF;}
	.st329{fill:#91FEFF;}
	.st330{fill:#91FFD7;}
	.st331{fill:#91FFAD;}
	.st332{fill:#9EFF91;}
	.st333{fill:#C7FF91;}
	.st334{fill:#F1FF91;}
	.st335{fill:#FFE491;}
	.st336{fill:none;stroke:#000000;stroke-width:1.5;stroke-linejoin:round;stroke-miterlimit:5.774;}
	.st337{fill:none;stroke:#000000;stroke-width:1.5;stroke-miterlimit:5.774;}
	.st338{fill:#231815;}
	.st339{fill:#1A1A1A;}
	.st340{fill:#009FE8;}
	.st341{fill:#0085D0;}
	.st342{fill:#0068B6;}
	.st343{fill:#00469B;}
	.st344{fill:#1D2087;}
	.st345{fill:#5F1985;}
	.st346{fill:#910782;}
	.st347{fill:#BD0080;}
	.st348{fill:#E3007F;}
	.st349{fill:#E40069;}
	.st350{fill:#E4004F;}
	.st351{fill:#E50032;}
	.st352{fill:#E50012;}
	.st353{fill:#EA6000;}
	.st354{fill:#F29600;}
	.st355{fill:#FBC600;}
	.st356{fill:#FFF000;}
	.st357{fill:#CEDA00;}
	.st358{fill:#8DC21F;}
	.st359{fill:#1EAA39;}
	.st360{fill:#009844;}
	.st361{fill:#009A6B;}
	.st362{fill:#009D95;}
	.st363{fill:#009FC0;}
	.st364{fill:#0086C2;}
	.st365{fill:#0071AE;}
	.st366{fill:#005698;}
	.st367{fill:#003883;}
	.st368{fill:#161573;}
	.st369{fill:#4F0B71;}
	.st370{fill:#7A006E;}
	.st371{fill:#9D006B;}
	.st372{fill:#BD006A;}
	.st373{fill:#BD0057;}
	.st374{fill:#BD0040;}
	.st375{fill:#BD0027;}
	.st376{fill:#BE0008;}
	.st377{fill:#C24E00;}
	.st378{fill:#C87D00;}
	.st379{fill:#CEA400;}
	.st380{fill:#D4C600;}
	.st381{fill:#AAB500;}
	.st382{fill:#75A215;}
	.st383{fill:#138F2E;}
	.st384{fill:#008139;}
	.st385{fill:#008259;}
	.st386{fill:#00837E;}
	.st387{fill:#0085A1;}
	.st388{fill:#006794;}
	.st389{fill:#005586;}
	.st390{fill:#003F76;}
	.st391{fill:#002566;}
	.st392{fill:#080058;}
	.st393{fill:#3B0056;}
	.st394{fill:#5D0053;}
	.st395{fill:#790050;}
	.st396{fill:#90004F;}
	.st397{fill:#90003F;}
	.st398{fill:#8F002C;}
	.st399{fill:#8F0015;}
	.st400{fill:#900000;}
	.st401{fill:#923700;}
	.st402{fill:#975C00;}
	.st403{fill:#9B7C00;}
	.st404{fill:#9F9500;}
	.st405{fill:#808800;}
	.st406{fill:#567B03;}
	.st407{fill:#006E1D;}
	.st408{fill:#006428;}
	.st409{fill:#006442;}
	.st410{fill:#006560;}
	.st411{fill:#00677D;}
	.st412{fill:#004061;}
	.st413{fill:#003257;}
	.st414{fill:#00204C;}
	.st415{fill:#000640;}
	.st416{fill:#000036;}
	.st417{fill:#1F0035;}
	.st418{fill:#390032;}
	.st419{fill:#4E002F;}
	.st420{fill:#5F002D;}
	.st421{fill:#5E001F;}
	.st422{fill:#5E000E;}
	.st423{fill:#5E0000;}
	.st424{fill:#5D0000;}
	.st425{fill:#5F1900;}
	.st426{fill:#613600;}
	.st427{fill:#644C00;}
	.st428{fill:#675E00;}
	.st429{fill:#505600;}
	.st430{fill:#314D00;}
	.st431{fill:#004502;}
	.st432{fill:#003F0D;}
	.st433{fill:#003F25;}
	.st434{fill:#00403B;}
	.st435{fill:#00404F;}
	.st436{fill:#00459B;}
	.st437{fill:#FFFFFF;stroke:#CCCCCC;stroke-width:1.1743;}
	.st438{fill:#003782;}
	.st439{fill:#002465;}
	.st440{fill:#000540;}
	.st441{fill-rule:evenodd;clip-rule:evenodd;fill:#FAFAFA;}
	.st442{fill-rule:evenodd;clip-rule:evenodd;fill:#F5F5F5;}
	.st443{fill-rule:evenodd;clip-rule:evenodd;fill:#EEEEEE;}
	.st444{fill-rule:evenodd;clip-rule:evenodd;fill:#E0E0E0;}
	.st445{fill-rule:evenodd;clip-rule:evenodd;fill:#BDBDBD;}
	.st446{fill-rule:evenodd;clip-rule:evenodd;fill:#9E9E9E;}
	.st447{fill-rule:evenodd;clip-rule:evenodd;fill:#757575;}
	.st448{fill-rule:evenodd;clip-rule:evenodd;fill:#616161;}
	.st449{fill-rule:evenodd;clip-rule:evenodd;fill:#424242;}
	.st450{fill-rule:evenodd;clip-rule:evenodd;fill:#212121;}
	.st451{fill:#1F1C1D;}
	.st452{fill:#504E4E;}
	.st453{fill:#373536;}
	.st454{fill:#686767;}
	.st455{fill:#2B2929;}
	.st456{fill:#747474;}
	.st457{fill:#444242;}
	.st458{fill:#5C5B5B;}
	.st459{fill:#393536;}
	.st460{fill:#9C9A9B;}
	.st461{fill:#6A6868;}
	.st462{fill:#CDCDCD;}
	.st463{fill:#514F4F;}
	.st464{fill:#E6E6E6;}
	.st465{fill:#838182;}
	.st466{fill:#B5B3B4;}
	.st467{fill:#060203;}
	.st468{fill:#030102;}
	.st469{fill:#040202;}
	.st470{fill:#010101;}
	.st471{fill:#040203;}
	.st472{fill:#010000;}
	.st473{fill:#020101;}
	.st474{fill:#070304;}
	.st475{fill:none;}
	.st476{fill-rule:evenodd;clip-rule:evenodd;fill:#B5B5B6;}
	.st477{fill:#DE5924;}
	.st478{fill:#D35A27;}
	.st479{fill:#09AEE8;}
	.st480{fill:#8F3A97;}
	.st481{fill:#E6359D;}
	.st482{fill:#F15E2B;}
	.st483{fill:#F4A61E;}
	.st484{fill:#F4CD1E;}
	.st485{fill-rule:evenodd;clip-rule:evenodd;fill:#010101;}
	.st486{fill-rule:evenodd;clip-rule:evenodd;fill:#F5C701;}
	.st487{fill-rule:evenodd;clip-rule:evenodd;fill:#FFC000;}
	.st488{fill:none;stroke:#000000;stroke-width:6;stroke-linecap:round;stroke-linejoin:round;stroke-miterlimit:10;}
	.st489{fill-rule:evenodd;clip-rule:evenodd;fill:#1EAA39;}
	.st490{fill:#F7931A;}
	.st491{fill:#E0E0E0;}
	.st492{fill:#343434;}
	.st493{fill:#8C8C8C;}
	.st494{fill:#3C3C3B;}
	.st495{fill:#141414;}
	.st496{fill:#393939;}
	.st497{fill-rule:evenodd;clip-rule:evenodd;fill:#50AF95;}
	.st498{fill:#2775CA;}
	.st499{fill:#F0B90B;stroke:#F0B90B;}
	.st500{fill-rule:evenodd;clip-rule:evenodd;fill:#F0B90B;}
	.st501{fill:#F5AC37;}
	.st502{fill:#FEFEFD;}
	.st503{fill:#222222;}
	.st504{fill:#535353;}
	.st505{fill:#424242;}
	.st506{fill:#646464;}
	.st507{fill:#ADADAD;}
	.st508{fill:#7A7A7A;}
	.st509{fill:#919191;}
	.st510{fill:#CBCBCB;}
	.st511{fill:#161616;}
	.st512{fill:#151515;}
	.st513{fill:#3C3C3C;}
	.st514{fill:#3A3A3A;}
	.st515{fill:#6B6B6B;}
	.st516{fill:#A7A7A7;}
	.st517{fill:#6E6E6E;}
	.st518{fill:#A1A1A1;}
	.st519{fill:#FDFDFD;}
	.st520{fill:#EBB228;}
	.st521{fill:#0030D4;}
	.st522{fill:#21242A;}
	.st523{fill:#004FFF;}
	.st524{fill:#212121;}
	.st525{fill:#CBFF00;}
	.st526{fill:#F3B919;}
	.st527{fill:#5551FF;}
	.st528{fill:#0A0A0A;}
</style>
<g>
</g>
<path class="st281" d="M256,0C114.6,0,0,114.6,0,256s114.6,256,256,256s256-114.6,256-256S397.4,0,256,0z M407.5,251.7
	c-1.9,3.3-5.4,5.5-10.7,6.6l-10.1,2.2c-3.2,0.6-6.1,1-8.8,1.3c-2.7,0.3-6.1,0.6-10.2,1c-8.8,0.9-13.2,4.8-13.2,11.5
	c0,0.6,0.4,3.1,1.1,7.6c0.7,4.5,1.7,10.1,2.9,16.7c1.2,6.6,2.6,13.9,4.1,21.9c1.5,8,2.9,15.6,4.3,22.9c1.4,7.3,2.7,13.8,3.8,19.5
	c1.1,5.7,2,9.8,2.5,12.2c0.9,4.1,1.7,7.3,2.2,9.5s0.8,5.3,0.8,9.3c0,3-0.8,5.9-2.5,8.8c-1.7,2.9-4.2,5.5-7.4,7.7
	c-3.3,2.2-7.3,4.1-11.9,5.5c-4.7,1.4-10,2.1-16,2.1c-6.5,0-11.3-2-14.2-6c-2.9-4-4.9-8.6-6-13.9c-2.4-9.7-4.7-19.7-6.9-30
	c-2.2-10.3-4.2-20.5-6.2-30.6c-2-10.1-3.8-20-5.6-29.6c-1.8-9.6-3.4-18.8-4.9-27.6c-0.9-4.1-2.6-7.2-5-9.1c-2.4-2-5.5-2.9-9.3-2.9
	c-12.7,0-25.5,0.4-38.3,1.3c-12.8,0.8-25.4,1.5-37.7,2.1c-4.3,0.4-7.7,1.8-10.1,4.2c-2.4,2.4-3.6,5.6-3.6,9.5
	c0,8.8,0.1,17.5,0.3,26.1c0.2,8.6,0.3,17.4,0.3,26.4c0,10.3-0.1,20.9-0.4,31.7c-0.3,10.8-0.7,21.3-1.3,31.4
	c-0.4,3.7-1.5,6.8-3.2,9.3c-1.8,2.4-4,4.4-6.7,5.9c-2.7,1.5-5.8,2.5-9.3,3.1c-3.5,0.6-7,0.8-10.5,0.8c-8.8,0-15.6-1.5-20.5-4.3
	c-4.9-2.9-7.3-7.8-7.3-14.7c0-10.5,0.3-21.4,0.8-32.8c0.6-11.4,0.8-22.9,0.8-34.5c0-7.9-0.1-15.5-0.3-22.9c-0.2-7.4-0.3-15-0.3-22.9
	c0-3.6-0.8-6.2-2.4-8c-1.6-1.8-3.5-3.2-5.8-4.3c-2.2-1.1-4.8-2.2-7.6-3.2c-2.8-1-5.3-2.6-7.6-4.6c-2.2-2.1-4.2-5-5.8-9
	c-1.6-3.9-2.4-9.4-2.4-16.3c0-3.7,0.7-6.7,2.1-8.8c1.4-2.1,3.2-3.9,5.3-5.2c2.1-1.3,4.4-2.4,6.9-3.2c2.4-0.8,4.7-1.9,6.9-3.2
	c2.1-1.3,3.9-2.9,5.3-4.9c1.4-2,2.1-4.8,2.1-8.6c0-2.2-0.1-4.9-0.3-8c-0.2-3.1-0.4-6-0.6-8.8c-0.2-2.8-0.4-5.3-0.6-7.4
	c-0.2-2.1-0.3-3.6-0.3-4.3c0-6.4,0.9-11.5,2.7-15.3c1.8-3.8,4-6.7,6.6-8.7c2.6-2,5.6-3.3,8.8-3.9c3.3-0.7,6.4-1,9.4-1
	c11.2,0,19,2.1,23.4,6.3c4.4,4.2,6.8,10.3,7.2,18.4l1.1,29.5c0.4,4.5,1.6,7.9,3.6,10.2c2.1,2.3,5.4,3.5,10.1,3.5l63.7-2.2
	c5.4-0.4,8.9-1.9,10.5-4.5c1.6-2.6,2.4-6.5,2.4-11.8c0-2.1-0.5-5.1-1.4-9.3c-0.9-4.1-2.1-8.8-3.4-14.2c-1.3-5.3-2.8-11-4.5-17.1
	c-1.7-6.1-3.2-12-4.5-17.8c-1.3-5.8-2.4-11.2-3.4-16.3c-0.9-5-1.4-9.3-1.4-12.6c0-4.3,1.2-7.8,3.6-10.5c2.4-2.7,5.5-4.8,9.3-6.3
	c3.7-1.5,7.8-2.5,12.1-3.1c4.3-0.6,8.4-0.8,12.3-0.8c4.9,0,9.6,1.4,14.2,4.1c4.6,2.7,7.7,7.5,9.4,14.4c2.1,7.3,3.8,14.6,5.2,22
	c1.4,7.4,2.7,14.6,3.8,21.6s2.2,13.8,3.2,20.3c1,6.5,2.1,12.6,3.2,18.2c1.1,4.5,2.6,8,4.3,10.7c1.8,2.6,3.9,4.6,6.5,6
	c2.5,1.4,5.2,2.3,8.1,2.7c2.9,0.4,6,0.6,9.4,0.6c3.7,0,7.8-0.4,12.1-1.1c4.3-0.7,8.5-1.1,12.6-1.1c2.6,0,5.2,0.4,7.7,1.3
	c2.5,0.8,4.8,2.3,6.9,4.5c2.1,2.2,3.7,5.1,4.9,8.8c1.2,3.7,1.8,8.5,1.8,14.3C410.3,244.3,409.4,248.4,407.5,251.7z"/>
</svg>
