<svg id="图层_1" data-name="图层 1" xmlns="http://www.w3.org/2000/svg" viewBox="0 0 512 512"><defs><style>.cls-1{fill:#f7b91c;}.cls-2{fill:#fff;}</style></defs><circle class="cls-1" cx="256" cy="256" r="250"/><path class="cls-2" d="M277.64,201.48a44.53,44.53,0,0,0-1.37-9q-1.36-6-3.28-13.84t-4.39-16.71q-2.46-8.89-4.38-17.4t-3.29-15.89a70.29,70.29,0,0,1-1.37-12.33A14.82,14.82,0,0,1,263.12,106a23.71,23.71,0,0,1,9-6.16,48.67,48.67,0,0,1,11.79-3A92.67,92.67,0,0,1,296,96a26.93,26.93,0,0,1,13.84,4q6.71,4,9.17,14.11,3,10.69,5.07,21.51t3.7,21.09q1.65,10.27,3.15,19.87t3.15,17.81a32.85,32.85,0,0,0,4.25,10.41,18.28,18.28,0,0,0,6.3,5.89,21.9,21.9,0,0,0,7.95,2.6,70.86,70.86,0,0,0,9.17.55,69.08,69.08,0,0,0,11.78-1.1,71.92,71.92,0,0,1,12.33-1.09,23.77,23.77,0,0,1,7.54,1.23,16.58,16.58,0,0,1,6.71,4.38,22.26,22.26,0,0,1,4.79,8.63,46,46,0,0,1,1.78,14A23.74,23.74,0,0,1,404,251.75q-2.74,4.8-10.42,6.44l-9.86,2.19c-3.11.55-6,1-8.63,1.24s-6,.59-10,1q-12.89,1.37-12.88,11.23c0,.55.37,3,1.1,7.4s1.69,9.82,2.88,16.3,2.51,13.61,4,21.37,2.88,15.2,4.25,22.33,2.6,13.47,3.69,19,1.92,9.54,2.47,11.91q1.37,6,2.19,9.32a38.87,38.87,0,0,1,.82,9,17,17,0,0,1-2.46,8.63,23.73,23.73,0,0,1-7.26,7.53A41.45,41.45,0,0,1,352.16,412a54.32,54.32,0,0,1-15.61,2.05q-9.6,0-13.84-5.89a35.66,35.66,0,0,1-5.89-13.56q-3.56-14.24-6.71-29.31t-6-29.87q-2.88-14.79-5.48-28.9t-4.79-27q-1.38-6-4.93-8.9a13.93,13.93,0,0,0-9-2.88q-18.64,0-37.4,1.23t-36.85,2.06q-6.3.56-9.86,4.11a12.57,12.57,0,0,0-3.57,9.31q0,12.88.28,25.48t.27,25.76q0,15.06-.41,30.95t-1.23,30.69a18.14,18.14,0,0,1-3.15,9,20,20,0,0,1-6.58,5.75,27.85,27.85,0,0,1-9,3A63.9,63.9,0,0,1,162,416q-12.89,0-20-4.25t-7.13-14.38q0-15.35.83-32.05t.82-33.7q0-11.5-.28-22.33T136,287q0-5.2-2.33-7.81a18.66,18.66,0,0,0-5.62-4.25,74.28,74.28,0,0,0-7.39-3.15,22,22,0,0,1-7.4-4.52,23.76,23.76,0,0,1-5.62-8.76q-2.33-5.76-2.32-15.89c0-3.66.68-6.53,2.05-8.63a16.17,16.17,0,0,1,5.21-5.07,34,34,0,0,1,6.71-3.15,35.18,35.18,0,0,0,6.71-3.15,17.51,17.51,0,0,0,5.21-4.8c1.37-1.92,2-4.7,2-8.36q0-3.28-.27-7.8c-.19-3-.37-5.89-.55-8.63s-.37-5.16-.55-7.26-.27-3.52-.27-4.25q0-9.31,2.6-14.93a21.77,21.77,0,0,1,6.44-8.5,21.13,21.13,0,0,1,8.63-3.83,46.68,46.68,0,0,1,9.18-1q16.42,0,22.87,6.16t7,18l1.09,28.77c.37,4.38,1.55,7.72,3.57,10s5.29,3.42,9.86,3.42L265,217.37q7.95-.54,10.28-4.38T277.64,201.48Z"/></svg>