<?xml version="1.0" encoding="utf-8"?>
<!-- Generator: Adobe Illustrator 27.0.0, SVG Export Plug-In . SVG Version: 6.00 Build 0)  -->
<svg version="1.1" id="_图层_1" xmlns="http://www.w3.org/2000/svg" xmlns:xlink="http://www.w3.org/1999/xlink" x="0px" y="0px"
	 viewBox="0 0 512 512" style="enable-background:new 0 0 512 512;" xml:space="preserve">
<style type="text/css">
	.st0{fill:#F7B91C !important;}
	.st1{fill:#FFFFFF !important;}
</style>
<circle class="st0" cx="256" cy="256" r="256"/>
<path class="st1" d="M277.4,202.2c0-2-0.5-5-1.4-8.9c-0.9-4-2-8.5-3.3-13.7c-1.3-5.1-2.7-10.6-4.3-16.5c-1.6-5.9-3.1-11.6-4.3-17.2
	c-1.3-5.6-2.3-10.8-3.3-15.7c-0.9-4.9-1.4-8.9-1.4-12.2c0-4.1,1.2-7.5,3.5-10.1c2.3-2.6,5.3-4.6,8.9-6.1c3.6-1.4,7.5-2.4,11.6-3
	c4.1-0.5,8.1-0.8,11.9-0.8c4.7,0,9.2,1.3,13.7,3.9c4.4,2.6,7.4,7.3,9.1,13.9c2,7,3.7,14.1,5,21.2c1.4,7.1,2.6,14.1,3.7,20.8
	c1.1,6.8,2.1,13.3,3.1,19.6c1,6.3,2,12.2,3.1,17.6c1.1,4.3,2.5,7.8,4.2,10.3c1.7,2.5,3.8,4.5,6.2,5.8s5,2.2,7.9,2.6
	c2.8,0.4,5.8,0.5,9.1,0.5c3.6,0,7.5-0.4,11.6-1.1c4.1-0.7,8.2-1.1,12.2-1.1c2.5,0,5,0.4,7.4,1.2c2.4,0.8,4.6,2.3,6.6,4.3
	c2,2.1,3.6,4.9,4.7,8.5c1.2,3.6,1.8,8.2,1.8,13.8c0,4.7-0.9,8.6-2.7,11.8c-1.8,3.2-5.2,5.3-10.3,6.4l-9.7,2.2
	c-3.1,0.5-5.9,0.9-8.5,1.2c-2.6,0.3-5.9,0.6-9.9,0.9c-8.5,0.9-12.7,4.6-12.7,11.1c0,0.5,0.4,3,1.1,7.3c0.7,4.3,1.7,9.7,2.8,16.1
	c1.2,6.4,2.5,13.4,3.9,21.1c1.4,7.7,2.8,15,4.2,22c1.4,7,2.6,13.3,3.7,18.8c1.1,5.5,1.9,9.4,2.4,11.8c0.9,4,1.6,7,2.2,9.2
	c0.5,2.2,0.8,5.1,0.8,8.9c0,2.9-0.8,5.7-2.4,8.5c-1.6,2.8-4,5.3-7.2,7.4c-3.2,2.2-7,3.9-11.5,5.3c-4.5,1.4-9.7,2-15.4,2
	c-6.3,0-10.9-1.9-13.7-5.8c-2.8-3.9-4.7-8.3-5.8-13.4c-2.3-9.4-4.6-19-6.6-29c-2.1-9.9-4.1-19.8-6-29.5c-1.9-9.7-3.7-19.3-5.4-28.5
	c-1.7-9.3-3.3-18.2-4.7-26.6c-0.9-4-2.5-6.9-4.9-8.8c-2.3-1.9-5.3-2.8-8.9-2.8c-12.3,0-24.6,0.4-36.9,1.2c-12.4,0.8-24.5,1.5-36.4,2
	c-4.1,0.4-7.4,1.7-9.7,4.1c-2.3,2.3-3.5,5.4-3.5,9.2c0,8.5,0.1,16.9,0.3,25.2c0.2,8.3,0.3,16.8,0.3,25.4c0,9.9-0.1,20.1-0.4,30.6
	c-0.3,10.5-0.7,20.6-1.2,30.3c-0.4,3.6-1.4,6.6-3.1,8.9c-1.7,2.3-3.9,4.2-6.5,5.7c-2.6,1.4-5.6,2.4-8.9,3c-3.3,0.5-6.7,0.8-10.1,0.8
	c-8.5,0-15.1-1.4-19.8-4.2c-4.7-2.8-7-7.5-7-14.2c0-10.1,0.3-20.6,0.8-31.7c0.5-11,0.8-22.1,0.8-33.3c0-7.6-0.1-14.9-0.3-22
	c-0.2-7.1-0.3-14.5-0.3-22c0-3.4-0.8-6-2.3-7.7c-1.5-1.7-3.4-3.1-5.5-4.2s-4.6-2.1-7.3-3.1c-2.7-1-5.1-2.5-7.3-4.5
	c-2.2-2-4-4.9-5.5-8.7c-1.5-3.8-2.3-9-2.3-15.7c0-3.6,0.7-6.4,2-8.5c1.4-2.1,3.1-3.7,5.1-5c2.1-1.3,4.3-2.3,6.6-3.1
	c2.3-0.8,4.6-1.9,6.6-3.1c2.1-1.3,3.8-2.8,5.1-4.7c1.4-1.9,2-4.6,2-8.3c0-2.2-0.1-4.7-0.3-7.7c-0.2-3-0.4-5.8-0.5-8.5
	c-0.2-2.7-0.4-5.1-0.5-7.2c-0.2-2.1-0.3-3.5-0.3-4.2c0-6.1,0.9-11,2.6-14.7c1.7-3.7,3.8-6.5,6.4-8.4c2.5-1.9,5.4-3.2,8.5-3.8
	c3.2-0.6,6.2-0.9,9.1-0.9c10.8,0,18.4,2,22.6,6.1c4.2,4.1,6.5,10,6.9,17.7l1.1,28.4c0.4,4.3,1.5,7.6,3.5,9.9c2,2.3,5.2,3.4,9.7,3.4
	l61.4-2.2c5.2-0.4,8.6-1.8,10.1-4.3C276.6,211,277.4,207.2,277.4,202.2L277.4,202.2z"/>
</svg>
