<svg xmlns="http://www.w3.org/2000/svg" viewBox="0 0 512 512" xml:space="preserve">
  <circle cx="256" cy="256" r="250" fill="#f7b91c"/>
  <path d="M343.4 184c7.6-4.2 16.6-6.3 27-6.3 8.1 0 16.3 1.1 24.7 3.4 8.4 2.3 15.7 5.6 22 9.9l18.6-33.4c-4.6-2.8-10.5-5.6-17.8-8.4-7.3-2.8-15.4-5.2-24.3-7.2l9.1-36.1h-39.1l-9.1 35.3c-12.2 1.3-22.6 3.9-31.3 8s-15.9 8.9-21.6 14.6c-5.7 5.7-9.9 12.1-12.7 19.2-2.8 7.1-4.2 14.4-4.2 22 0 6.8.8 13.2 2.5 19.2 1.6 6 4.4 11.5 8.4 16.7 3.9 5.2 9 10.2 15.4 15 6.3 4.8 14.3 9.5 23.9 14 4 2 7.9 4.1 11.6 6.1 3.7 2 6.9 4.2 9.7 6.6 2.8 2.4 5 5.1 6.6 8 1.6 2.9 2.5 6.4 2.5 10.4 0 5.8-1.3 10.5-3.8 14.1-2.5 3.5-5.9 6.3-10.1 8.2-4.2 1.9-8.9 3.2-14.1 3.8-5.2.6-10.3.9-15.4.9-10.9 0-21-1.8-30.4-5.3-9.3-3.5-16.7-7-22.2-10.5-.6-15.8-1.4-31.5-2.4-47.1-1.2-19.8-2.6-39-4.2-57.6s-3.5-35.8-5.7-51.7h-53c-13.2 21.5-26 43.6-38.4 66.2-12.4 22.6-24 44.9-34.9 66.8-10.9 21.9-21 42.9-30.3 62.8s-17.3 38-24 54.1h51.3c5.1-12.9 11.4-27.9 18.8-45s15.2-34.7 23.4-52.9c8.2-18.2 16.5-36.1 24.8-53.9 8.3-17.8 16.2-33.7 23.4-47.7 1.1 15.3 1.8 32 2.2 50.1.4 18 .6 36.5.6 55.3 0 17.8-.1 34.7-.4 50.9-.3 16.2-.7 30.6-1.2 43.2h50.9c.3-3.2.4-6.7.4-10.5v-11.7c0-8.8-.1-17.8-.2-26.8 8.8 3.6 19.1 6.3 30.8 8l-9.9 41h39.5l9.5-40.6c21.5-2 38.9-8.6 52-19.7 13.2-11.1 19.7-27.1 19.7-47.8 0-8.6-1.4-16.1-4.2-22.6-2.8-6.5-6.5-12.2-11.2-17.1-4.7-4.9-10.1-9.3-16.1-13.1-6.1-3.8-12.3-7.3-18.6-10.6-11.4-5.6-19.2-10.6-23.5-15.2-4.3-4.6-6.5-10-6.5-16.3.1-8.2 3.9-14.5 11.5-18.7z" fill="#fff"/>
</svg>
