<svg id="图层_1" data-name="图层 1" xmlns="http://www.w3.org/2000/svg" viewBox="0 0 512 512"><defs><style>.cls-1{fill:#fff !important;}.cls-2{fill:#343434 !important;}.cls-3{fill:#8c8c8c !important;}.cls-4{fill:#3c3c3b !important;}.cls-5{fill:#141414 !important;}.cls-6{fill:#393939 !important;}</style></defs><circle class="cls-1" cx="256" cy="256" r="256"/><g id="Layer_1"><g id="_1421394342400" data-name=" 1421394342400"><polygon class="cls-2" points="255.96 55 253.27 64.16 253.27 329.97 255.96 332.66 379.35 259.73 255.96 55"/><polygon class="cls-3" points="255.96 55 132.58 259.73 255.96 332.66 255.96 203.65 255.96 55"/><polygon class="cls-4" points="255.96 356.02 254.44 357.88 254.44 452.56 255.96 457 379.42 283.13 255.96 356.02"/><polygon class="cls-3" points="255.96 457 255.96 356.02 132.58 283.13 255.96 457"/><polygon class="cls-5" points="255.96 332.66 379.35 259.73 255.96 203.65 255.96 332.66"/><polygon class="cls-6" points="132.58 259.73 255.96 332.66 255.96 203.65 132.58 259.73"/></g></g></svg>