<svg xmlns="http://www.w3.org/2000/svg" viewBox="0 0 512 512" xml:space="preserve">
  <circle cx="256" cy="256" r="250" fill="#f7b91c"/>
  <path d="M249.1 238.5h82.1v56h-82.1c0 5.9-.2 12.4-.6 19.4-.4 7-.8 14.1-1.4 21.4-.6 7.2-1.2 14.1-1.9 20.8-.7 6.7-1.7 12.8-2.8 18.3h129.2V431H167.5c5.9-26.6 9.8-51.3 11.6-74 1.8-22.7 3.1-43.5 3.9-62.4h-42.7v-56H183v-28.8c0-24.8 2.7-45.4 8-61.8 5.4-16.4 12.8-29.7 22.5-39.7 9.6-10 21.4-17 35.2-21.1 13.9-4.1 29.5-6.1 46.9-6.1 12.9 0 25.2 1.3 36.9 3.9 11.6 2.6 23 6.3 34.1 11.1l-18.3 54.4c-7.8-4.1-15-6.8-21.6-8.3-6.7-1.5-14.8-2.4-24.4-2.8-7.8 0-15 .8-21.6 2.5-6.7 1.7-12.3 4.8-16.9 9.4-4.6 4.6-8.2 10.8-10.8 18.6-2.6 7.8-3.9 17.8-3.9 30v38.6z" fill="#fff"/>
</svg>
