<svg id="图层_1" data-name="图层 1" xmlns="http://www.w3.org/2000/svg" viewBox="0 0 512 512"><defs><style>.cls-1{fill:#f7b91c;}.cls-2{fill:#fff;}</style></defs><circle class="cls-1" cx="256" cy="256" r="250"/><path class="cls-2" d="M109.33,211.56q0-31.51,2-41.62c1.34-6.73,5.26-10.1,11.72-10.1h279.6q0,29.91-1.62,40.81t-11.31,10.91Zm0,137.37q0-31.51,2-41.62c1.34-6.73,5.26-10.1,11.72-10.1h279.6q0,29.91-1.62,40.81t-11.31,10.91ZM150.54,416l16.17-307.07q.79-10.5,14.54-11.72T224.89,96L208.73,403.07q-.81,9.71-13.74,11.31T150.54,416Zm135,0,16.17-307.07q.79-10.5,14.14-11.72T359,96L342.87,403.07q-.81,9.71-13.74,11.31T285.49,416Z"/></svg>