<?xml version="1.0" encoding="utf-8"?>
<!-- Generator: Adobe Illustrator 27.0.0, SVG Export Plug-In . SVG Version: 6.00 Build 0)  -->
<svg version="1.1" id="图层_1" xmlns="http://www.w3.org/2000/svg" xmlns:xlink="http://www.w3.org/1999/xlink" x="0px" y="0px"
	 viewBox="0 0 512 512" style="enable-background:new 0 0 512 512;" xml:space="preserve">
<style type="text/css">
	.st0{fill:#FFC000 !important;}
	.st1{fill:#FFFFFF !important;}
</style>
<path class="st0" d="M257,0h-2C114.2,0,0,114.2,0,255v2c0,140.8,114.2,255,255,255h2c140.8,0,255-114.2,255-255v-2
	C512,114.2,397.8,0,257,0z"/>
<path class="st1" d="M121.3,142.7h84.5c2.9,0,5.3-2.4,5.3-5.3V98h89.8v39.4c0,2.9,2.4,5.3,5.3,5.3h84.5v89.8H121.3L121.3,142.7
	L121.3,142.7z"/>
<path class="st1" d="M390.7,369.3h-84.5c-2.9,0-5.3,2.4-5.3,5.3V414h-89.8v-39.4c0-2.9-2.4-5.3-5.3-5.3h-84.5v-89.8h269.4V369.3z"/>
</svg>
