<svg id="图层_1" data-name="图层 1" xmlns="http://www.w3.org/2000/svg" viewBox="0 0 512 512"><path class="" d="M192.45,374.05,349.89,260.13a5.1,5.1,0,0,0,0-8.26L192.45,138a5.14,5.14,0,0,0-8.13,4.16v30a20.49,20.49,0,0,0,8.45,16.57l93,67.27-93,67.33a20.41,20.41,0,0,0-8.45,16.57v30A5.14,5.14,0,0,0,192.45,374.05Z"/><path class="" d="M491.52,29.18h-471C9.15,29.18,0,37.29,0,47.33V464.67c0,10,9.15,18.15,20.48,18.15h471c11.33,0,20.48-8.11,20.48-18.15V47.33C512,37.29,502.85,29.18,491.52,29.18ZM465.92,442H46.08V70H465.92Z"/></svg>