<?xml version="1.0" encoding="utf-8"?>
<!-- Generator: Adobe Illustrator 25.4.0, SVG Export Plug-In . SVG Version: 6.00 Build 0)  -->
<svg version="1.1" id="图层_1" xmlns="http://www.w3.org/2000/svg" xmlns:xlink="http://www.w3.org/1999/xlink" x="0px" y="0px"
	 viewBox="0 0 512 512" style="enable-background:new 0 0 512 512;" xml:space="preserve">
<style type="text/css">
	.st0{fill-rule:evenodd;clip-rule:evenodd;fill:#EB5C20;}
	.st1{fill-rule:evenodd;clip-rule:evenodd;fill:#E29227;}
	.st2{fill:#EB5C20;}
	.st3{fill-rule:evenodd;clip-rule:evenodd;fill:#70BA33;}
	.st4{fill-rule:evenodd;clip-rule:evenodd;fill:#1C9965;}
	.st5{fill-rule:evenodd;clip-rule:evenodd;fill:#1E5D91;}
	.st6{fill-rule:evenodd;clip-rule:evenodd;fill:#C6224E;}
	.st7{fill:#B5B5B6;}
	.st8{fill-rule:evenodd;clip-rule:evenodd;fill:#B5B5B6;}
	.st9{fill:#DF5B23;}
	.st10{fill:#B5B5B6;stroke:#B5B5B6;stroke-width:10;stroke-miterlimit:10;}
	.st11{fill:#B5B5B6;stroke:#B5B5B6;stroke-width:18;stroke-miterlimit:10;}
	.st12{fill:#1E5D91;}
	.st13{fill:#E29227;}
	.st14{fill:#1C9965;}
	.st15{fill:#70BA33;}
	.st16{fill:#C6224E;}
	.st17{fill:#0E0304;}
	.st18{fill:#29292C;}
	.st19{fill:#2E3032;}
	.st20{fill:#1A1A1B;}
	.st21{fill:#757579;}
	.st22{fill:none;stroke:#B5B5B6;stroke-width:30;stroke-linecap:round;stroke-linejoin:round;stroke-miterlimit:10;}
	.st23{fill:#FFFFFF;}
	.st24{fill:none;stroke:#B5B5B6;stroke-width:10;stroke-miterlimit:10;}
	.st25{fill:#221F20;}
	.st26{fill:#F1AA43;}
	.st27{fill:#EB9326;}
	.st28{fill:#EE9F38;}
	.st29{fill:#E8891D;}
	.st30{fill:#EF9E36;}
	.st31{fill:#F9C88E;}
	.st32{fill:#CB838E;}
	.st33{fill:#F7BF75;}
	.st34{fill-rule:evenodd;clip-rule:evenodd;fill:#DF5B23;}
	.st35{fill:#2F2833;}
	.st36{fill:#403944;}
	.st37{fill:#DF5924;}
	.st38{fill-rule:evenodd;clip-rule:evenodd;fill:#CCBCB1;}
	.st39{fill-rule:evenodd;clip-rule:evenodd;fill:#393939;}
	.st40{fill-rule:evenodd;clip-rule:evenodd;fill:#EF9839;}
	.st41{fill-rule:evenodd;clip-rule:evenodd;fill:#EF993A;}
	.st42{fill-rule:evenodd;clip-rule:evenodd;fill:#D07A32;}
	.st43{fill-rule:evenodd;clip-rule:evenodd;fill:#E1893D;}
	.st44{fill-rule:evenodd;clip-rule:evenodd;fill:#E28C38;}
	.st45{fill-rule:evenodd;clip-rule:evenodd;fill:#E18B3C;}
	.st46{fill-rule:evenodd;clip-rule:evenodd;fill:#DF7F24;}
	.st47{fill-rule:evenodd;clip-rule:evenodd;fill:#DDCCC2;}
	.st48{fill-rule:evenodd;clip-rule:evenodd;fill:#DF8C38;}
	.st49{fill-rule:evenodd;clip-rule:evenodd;fill:#8B5930;}
	.st50{fill:#1C5AA8;}
	.st51{fill:#2156A6;}
	.st52{fill:#E7B41E;}
	.st53{fill:#298CCD;}
	.st54{fill:#123443;}
	.st55{fill:#B8266A;}
	.st56{fill:#1B4B68;}
	.st57{fill:#040000;}
	.st58{fill:#1C4157;}
	.st59{fill:#4A6894;}
	.st60{fill:#343535;}
	.st61{fill:#3E5375;}
	.st62{fill:#6CAACE;}
	.st63{fill:#335C85;}
	.st64{fill:#5294B1;}
	.st65{fill-rule:evenodd;clip-rule:evenodd;fill:#5255A3;}
	.st66{fill-rule:evenodd;clip-rule:evenodd;fill:#2B60AC;}
	.st67{fill:#2B60AC;}
	.st68{fill:#E8412E;}
	.st69{fill:#E83F21;}
	.st70{fill:#E33E28;}
	.st71{fill:#E84138;}
	.st72{fill:#E94526;}
	.st73{fill:#E94423;}
	.st74{fill:#E9481F;}
	.st75{fill:#E94522;}
	.st76{fill:#E9461F;}
	.st77{fill:#E84236;}
	.st78{fill:#E9471E;}
	.st79{fill:#E6411D;}
	.st80{fill:#E8412F;}
	.st81{fill:#132533;}
	.st82{fill:url(#SVGID_1_);}
	.st83{fill:url(#SVGID_00000012471821153497935320000009246582150612658108_);}
	.st84{fill:#CBCFD7;}
	.st85{fill:url(#SVGID_00000064344926135166739260000008651597386242358433_);}
	.st86{fill:url(#SVGID_00000123431843812546940020000007472231600531947953_);}
	.st87{fill:#366FAE;}
	.st88{fill:#FFF100;}
	.st89{fill:url(#SVGID_00000059287909739910853470000013494311372514224312_);}
	.st90{fill:#FFE000;}
	.st91{fill:url(#SVGID_00000090274108451669094250000011952907793980789933_);}
	.st92{fill:#FAC000;}
	.st93{fill:url(#SVGID_00000129890302175595269830000000349208816726243209_);}
	.st94{fill:#F4A000;}
	.st95{fill:url(#SVGID_00000134239484982813528470000003718029810730177706_);}
	.st96{fill:#EE7300;}
	.st97{fill:url(#SVGID_00000013877896484345605970000016695236191234602151_);}
	.st98{fill:#E94709;}
	.st99{fill:url(#SVGID_00000137127859511923825150000011502762223898993817_);}
	.st100{fill:#009E41;}
	.st101{fill:url(#SVGID_00000159440088025938728760000017945136469288221831_);}
	.st102{fill:#40AF36;}
	.st103{fill:url(#SVGID_00000150784931252782660060000011522705052624110507_);}
	.st104{fill:#72BB2B;}
	.st105{fill:url(#SVGID_00000075884302382022157680000016861069563506709660_);}
	.st106{fill:#E3E300;}
	.st107{fill:url(#SVGID_00000036969707174384370380000013198912478589870746_);}
	.st108{fill:#A3CA0F;}
	.st109{fill:url(#SVGID_00000070817555271053792590000014468768336581134217_);}
	.st110{fill:#C4D700;}
	.st111{fill:url(#SVGID_00000121985966237305492970000004610258000112839833_);}
	.st112{fill:#36B8B7;}
	.st113{fill:#3EB4AD;}
	.st114{fill:#3AB8B9;}
	.st115{fill:#56BAB0;}
	.st116{fill:#65BBB2;}
	.st117{fill:#32B7B0;}
	.st118{fill:#2EB6AE;}
	.st119{fill:#48B6BC;}
	.st120{fill:#4DB5BD;}
	.st121{fill:#3EB4AE;}
	.st122{fill:#57BBB1;}
	.st123{fill:#060909;}
	.st124{fill:#061014;}
	.st125{fill:#FAFAFB;}
	.st126{fill:#F6F7F7;}
	.st127{fill:#F7F7F7;}
	.st128{fill:#F6F6F6;}
	.st129{fill:#7CB8BD;}
	.st130{fill:#3FB5B7;}
	.st131{fill:#4DB6B9;}
	.st132{fill:#F4F5F5;}
	.st133{fill:#F5F5F5;}
	.st134{fill:#070505;}
	.st135{fill:#F4F3F3;}
	.st136{fill:#050202;}
	.st137{fill:#71BCBA;}
	.st138{fill:#73BBB8;}
	.st139{fill:#76BEBC;}
	.st140{fill:#83B8B8;}
	.st141{fill:#3DB9B5;}
	.st142{fill:#40BABA;}
	.st143{fill:#36B8B6;}
	.st144{fill:#28B6B2;}
	.st145{fill:#00B5C6;}
	.st146{fill:#00B5C2;}
	.st147{fill:#23B7BB;}
	.st148{fill:#00B5C4;}
	.st149{fill:#14B6BE;}
	.st150{fill:#09B6C0;}
	.st151{fill:#41B9B1;}
	.st152{fill:#00B4D0;}
	.st153{fill:#00B4D3;}
	.st154{fill:#30B8B8;}
	.st155{fill:#00B4CD;}
	.st156{fill:#1CB6BD;}
	.st157{fill:#28B7BA;}
	.st158{fill:#47BAAE;}
	.st159{fill:#34B8B6;}
	.st160{fill:#4CBBAD;}
	.st161{fill:#3BB9B3;}
	.st162{fill:#44BAAF;}
	.st163{fill:#00B3D6;}
	.st164{fill:#00B3D9;}
	.st165{fill:#00B3D7;}
	.st166{fill:#00B3DB;}
	.st167{fill:#00B5CA;}
	.st168{fill:#37B8B5;}
	.st169{fill:#1BB6BD;}
	.st170{fill:#00B5C8;}
	.st171{fill:#231815;stroke:#FFFFFF;stroke-width:0.187;stroke-miterlimit:10;}
	.st172{fill:#023592;}
	.st173{fill-rule:evenodd;clip-rule:evenodd;fill:#60BEA1;}
	.st174{fill:#FFFFFF;stroke:#FFFFFF;stroke-width:0.187;stroke-miterlimit:10;}
	.st175{fill:#7C2B7F;}
	.st176{fill:#752C7F;}
	.st177{fill:#EE8753;}
	.st178{fill:#F09D47;}
	.st179{fill:#EF944D;}
	.st180{fill:#EE8C51;}
	.st181{fill:#EC795A;}
	.st182{fill:#F0984B;}
	.st183{fill:#EB715E;}
	.st184{fill:#9E2F7F;}
	.st185{fill:#AA2E7E;}
	.st186{fill:#EC7C5D;}
	.st187{fill:#C4337F;}
	.st188{fill:#932D7F;}
	.st189{fill:#A42F7E;}
	.st190{fill:#BD317E;}
	.st191{fill:#B8327F;}
	.st192{fill:#B2317E;}
	.st193{fill:#992D7F;}
	.st194{fill:#CA347F;}
	.st195{fill:#8C2D7F;}
	.st196{fill:#D0357F;}
	.st197{fill:#AE307E;}
	.st198{fill:#EC765E;}
	.st199{fill:#DB377F;}
	.st200{fill:#E44676;}
	.st201{fill:#862C7E;}
	.st202{fill:#E96B64;}
	.st203{fill:#D6357F;}
	.st204{fill:#E96B62;}
	.st205{fill:#E13A80;}
	.st206{fill:#E13D7E;}
	.st207{fill:#822B7F;}
	.st208{fill:#E54D75;}
	.st209{fill:#33A2D3;}
	.st210{fill:#E3417B;}
	.st211{fill:#E65371;}
	.st212{fill:#E65B6C;}
	.st213{fill:#E96764;}
	.st214{fill:#E85F68;}
	.st215{fill:#E96366;}
	.st216{fill:#EA6F67;}
	.st217{fill:#E6566D;}
	.st218{fill:#EA6C6C;}
	.st219{fill:#E7606E;}
	.st220{fill:#EB7563;}
	.st221{fill:#EC7C69;}
	.st222{fill:#E8687D;}
	.st223{fill:#E0EDF7;}
	.st224{fill:#E9676E;}
	.st225{fill:#E9B536;}
	.st226{fill:#864690;}
	.st227{fill:#334190;}
	.st228{fill:#6A438D;}
	.st229{fill:#6B438D;}
	.st230{fill:#6B448D;}
	.st231{fill:#3A4291;}
	.st232{fill:#81458F;}
	.st233{fill:#644390;}
	.st234{fill:#9E458E;}
	.st235{fill:#98468F;}
	.st236{fill:#92468F;}
	.st237{fill:#8D458F;}
	.st238{fill:#9B468F;}
	.st239{fill:#90468E;}
	.st240{fill:#9C468F;}
	.st241{fill:#A3458D;}
	.st242{fill:#4E4491;}
	.st243{fill:#434291;}
	.st244{fill:#534290;}
	.st245{fill:#6E4591;}
	.st246{fill:#754490;}
	.st247{fill:#5F4390;}
	.st248{fill:#7B4490;}
	.st249{fill:#584390;}
	.st250{fill:#594390;}
	.st251{fill:#474392;}
	.st252{fill:#B3458C;}
	.st253{fill:#6A4491;}
	.st254{fill:#AE468C;}
	.st255{fill:#97458F;}
	.st256{fill:#B6468C;}
	.st257{fill:#9B458E;}
	.st258{fill:#C4468C;}
	.st259{fill:#BD478C;}
	.st260{fill:#AA468D;}
	.st261{fill:#A7468D;}
	.st262{fill:#B3468D;}
	.st263{fill:#B0458C;}
	.st264{fill:#BC468C;}
	.st265{fill:#AF458C;}
	.st266{fill:#B9468C;}
	.st267{fill:#BD468B;}
	.st268{fill:#BA468C;}
	.st269{enable-background:new    ;}
	.st270{fill:#1D1E1D;}
	.st271{fill:url(#Fill_1_00000031182718155465951610000014146117958426961554_);}
	.st272{fill:url(#Fill_3_00000035527060458730678950000006648538099684868026_);}
	.st273{fill:url(#Fill_5_00000167378652822696660730000002379469768876657582_);}
	.st274{fill:#1E201F;}
	.st275{fill:#3AB9B5;}
	.st276{fill:#27B4B0;}
	.st277{fill:#009694;}
	.st278{fill:#554B9D;}
	.st279{clip-path:url(#SVGID_00000094608944868975112970000017684451461932206772_);}
	.st280{fill:url(#SVGID_00000146500143137287261600000013507534125678073222_);}
	.st281{fill:url(#SVGID_00000119823159804421919880000012292363649856903092_);}
	.st282{fill:url(#SVGID_00000079450319668608245440000006994547423273774471_);}
	.st283{fill:url(#SVGID_00000021108506963358053210000012223133109476306871_);}
	.st284{fill:url(#SVGID_00000067954693829112271570000003568838355844862126_);}
	.st285{fill:url(#SVGID_00000109007765102812351200000013625651924908011700_);}
	.st286{fill:url(#SVGID_00000036213137490961280500000017506977201152059808_);}
	.st287{fill:url(#SVGID_00000064312377387159875310000004340049699235634078_);}
	.st288{fill:url(#SVGID_00000063628189166494464410000003090796339334355866_);}
	.st289{fill:url(#SVGID_00000034080350749546956750000005251175200373388163_);}
	.st290{fill:url(#SVGID_00000060027964206985926930000013193264324689252753_);}
	.st291{fill:url(#SVGID_00000044862702503732719380000016098692722940585349_);}
	.st292{fill:url(#SVGID_00000013890367732541969940000014566654385278598576_);}
	.st293{fill:url(#SVGID_00000103230909327645307040000012784304459940236959_);}
	.st294{fill:url(#SVGID_00000070081721061204584770000015207746165045212588_);}
	.st295{fill:url(#SVGID_00000142857699865520974430000014782116333632278690_);}
	.st296{fill:url(#SVGID_00000142171466022825845480000012174028046933010070_);}
	.st297{fill:url(#SVGID_00000031888636412017027450000016733386620709664150_);}
	.st298{fill:url(#SVGID_00000142889079748545907210000014629929797216757640_);}
	.st299{fill:#070181;}
	.st300{fill:#FEC701;}
	.st301{fill:#231F8F;}
	.st302{fill:#20282A;}
	.st303{fill:#060081;}
	.st304{fill:#FE8A01;}
	.st305{fill:#FE9301;}
	.st306{fill:#FE8E02;}
	.st307{fill:#FE9800;}
	.st308{fill:#FDC303;}
	.st309{fill:#FE9106;}
	.st310{fill:#FEBD01;}
	.st311{fill:#FDB700;}
	.st312{fill:#FEC202;}
	.st313{fill:#FEB200;}
	.st314{fill:#E6FBF8;}
	.st315{fill:#94AED1;}
	.st316{fill:#C4E6E7;}
	.st317{fill:#B6D9E6;}
	.st318{fill:#D2F8F4;}
	.st319{fill:#AFD0E2;}
	.st320{fill:#FED005;}
	.st321{fill:#0241A9;}
	.st322{fill:#052C9B;}
	.st323{fill:#CFF7F4;}
	.st324{fill:#93ADD1;}
	.st325{fill:#D0F8F4;}
	.st326{fill:#E6FBF9;}
	.st327{fill:#FDC802;}
	.st328{fill:#B0D1E2;}
	.st329{fill:#AFD1E2;}
	.st330{fill:#ADCEE9;}
	.st331{fill:#CDF3FC;}
	.st332{fill:#AECFE9;}
	.st333{fill:#CDF4F2;}
	.st334{fill:#CBF2F1;}
	.st335{fill:#FBB61F;}
	.st336{fill:#FAAE29;}
	.st337{fill:#A3C2DB;}
	.st338{fill:#B1D3E3;}
	.st339{fill:#C6E0D9;}
	.st340{fill:#C5D7E8;}
	.st341{fill:#C1E6EC;}
	.st342{fill:#A7C8DE;}
	.st343{fill:#A7B8D8;}
	.st344{fill:#C4DEE9;}
	.st345{fill:#9FBDD9;}
	.st346{fill:#FE9D01;}
	.st347{fill:#FEAF02;}
	.st348{fill:#CFF5F1;}
	.st349{fill:#0D0884;}
	.st350{fill:#CFF6F3;}
	.st351{fill:#FEA500;}
	.st352{fill:#FEA000;}
	.st353{fill:#FEAB01;}
	.st354{fill:#738ECF;}
	.st355{fill:#062D9C;}
	.st356{fill:#728DCF;}
	.st357{fill:#FABD15;}
	.st358{fill:#FDBF08;}
	.st359{fill:#FAB91A;}
	.st360{fill:#F9C107;}
	.st361{fill:#FEFEFE;}
	.st362{fill:#E5D2FE;}
	.st363{fill:#C090FE;}
	.st364{fill:#9647FE;}
	.st365{fill:#9648FE;}
	.st366{fill:#FCFAFE;}
	.st367{fill:#FCFBFE;}
	.st368{fill:#F8F3FE;}
	.st369{fill:#FBF9FE;}
	.st370{fill:#FBF8FE;}
	.st371{fill:#FDFCFE;}
	.st372{fill:#F9F5FE;}
	.st373{fill:#F7F1FE;}
	.st374{fill:#F5EFFE;}
	.st375{fill:#F6F0FE;}
	.st376{fill:#DAC0FE;}
	.st377{fill:#D2B2FE;}
	.st378{fill:#D6B8FE;}
	.st379{fill:#DCC3FE;}
	.st380{fill:#F4ECFE;}
	.st381{fill:#D1AEFE;}
	.st382{fill:#DABFFE;}
	.st383{fill:#CCA7FE;}
	.st384{fill:#E5D1FE;}
	.st385{fill:#D5B6FE;}
	.st386{fill:#D0AEFE;}
	.st387{fill:#D3B3FE;}
	.st388{fill:#EADBFE;}
	.st389{fill:#D2B0FE;}
	.st390{fill:#E4D1FE;}
	.st391{fill:#E1CBFE;}
	.st392{fill:#FAF7FE;}
	.st393{fill:#F2E9FE;}
	.st394{fill:#CDA9FE;}
	.st395{fill:#C79EFE;}
	.st396{fill:#DABEFE;}
	.st397{fill:#EEE2FE;}
	.st398{fill:#BC8BFE;}
	.st399{fill:#C396FE;}
	.st400{fill:#CFACFE;}
	.st401{fill:#C49AFE;}
	.st402{fill:#DBC0FE;}
	.st403{fill:#CCA6FE;}
	.st404{fill:#D8BCFE;}
	.st405{fill:#DDC4FE;}
	.st406{fill:#EFE5FE;}
	.st407{fill:#CFADFE;}
	.st408{fill:#FCFCFE;}
	.st409{fill:#C091FE;}
	.st410{fill:#D9BEFE;}
	.st411{fill:#CAA2FE;}
	.st412{fill:#D1AFFE;}
	.st413{fill:#CAA3FE;}
	.st414{fill:#C497FE;}
	.st415{fill:#C9A1FE;}
	.st416{fill:#C092FE;}
	.st417{fill:#B680FE;}
	.st418{fill:#D1B0FE;}
	.st419{fill:#C194FE;}
	.st420{fill:#A868FE;}
	.st421{fill:#D2B1FE;}
	.st422{fill:#F3EBFE;}
	.st423{fill:#C498FE;}
	.st424{fill:#DBC2FE;}
	.st425{fill:#CBA5FE;}
	.st426{fill:#BA87FE;}
	.st427{fill:#DEC5FE;}
	.st428{fill:#BC89FE;}
	.st429{fill:#DCC1FE;}
	.st430{fill:#D3B4FE;}
	.st431{fill:#DFC9FE;}
	.st432{fill:#FAF8FE;}
	.st433{fill:#DCC2FE;}
	.st434{fill:#CDAAFE;}
	.st435{fill:#E9DAFE;}
	.st436{fill:#F9F6FE;}
	.st437{fill:#DFC8FE;}
	.st438{fill:#C89FFE;}
	.st439{fill:#D4B6FE;}
	.st440{fill:#F5EEFE;}
	.st441{fill:#DDC5FE;}
	.st442{fill:#E8D8FE;}
	.st443{fill:#CBA6FE;}
	.st444{fill:#D4B3FE;}
	.st445{fill:#FAF6FE;}
	.st446{fill:#E0C9FE;}
	.st447{fill:#CEAAFE;}
	.st448{fill:#B57DFE;}
	.st449{fill:#FEFDFE;}
	.st450{fill:#E4D0FE;}
	.st451{fill:#DBC1FE;}
	.st452{fill:#E0CAFE;}
	.st453{fill:#CFABFE;}
	.st454{fill:#8AD7C5;}
	.st455{fill:#3BBC9D;}
	.st456{fill:#81D4C0;}
	.st457{fill:#1EB28E;}
	.st458{fill:#7DD2BE;}
	.st459{fill:#25B8FC;}
	.st460{fill:#20C1FC;}
	.st461{fill:#1EC9FC;}
	.st462{fill:#12DBFD;}
	.st463{fill:#16D3FD;}
	.st464{fill:#1BC9FC;}
	.st465{fill:#10E1FD;}
	.st466{fill:#1ACAFC;}
	.st467{fill:#17D0FD;}
	.st468{fill:#0FDEFB;}
	.st469{fill:#14D8FD;}
	.st470{fill:#1BC6FC;}
	.st471{fill:#18CDFC;}
	.st472{fill:#16D1FB;}
	.st473{fill:#1EC4FC;}
	.st474{fill:#0EE5FD;}
	.st475{fill:#32A1FD;}
	.st476{fill:#2BADFD;}
	.st477{fill:#12D8FB;}
	.st478{fill:#26B5FC;}
	.st479{fill:#2DA9FD;}
	.st480{fill:#11DEFD;}
	.st481{fill:#2FA0FC;}
	.st482{fill:#12D9FB;}
	.st483{fill:#0DE9FD;}
	.st484{fill:#30A0FC;}
	.st485{fill:#379CFC;}
	.st486{fill:#20C0FC;}
	.st487{fill:#21BFFC;}
	.st488{fill:#24B8FC;}
	.st489{fill:#1ACBFC;}
	.st490{fill:#29B1FC;}
	.st491{fill:#14D5FB;}
	.st492{fill:#3C97FA;}
	.st493{fill:#19CDFB;}
	.st494{fill:#2DA6FC;}
	.st495{fill:#11DDFD;}
	.st496{fill:#29ADFC;}
	.st497{fill:#1EC1FC;}
	.st498{fill:#23BCFC;}
	.st499{fill:#16D2FB;}
	.st500{fill:#30A5FD;}
	.st501{fill:#1EC0FC;}
	.st502{fill:#25B4FC;}
	.st503{fill:#22BAFC;}
	.st504{fill:#17D0FB;}
	.st505{fill:#21BDFC;}
	.st506{fill:#2AABFC;}
	.st507{fill:#28AEFC;}
	.st508{fill:#27B1FC;}
	.st509{fill:#22B9FC;}
	.st510{fill:#4193F9;}
	.st511{fill:#4292F8;}
	.st512{fill:#498EF7;}
	.st513{fill:#4A8EF6;}
	.st514{fill:#21C0FC;}
	.st515{fill:#C4FDFE;}
	.st516{fill:#C8F5FD;}
	.st517{fill:#C6F8FE;}
	.st518{fill:#0DE3FC;}
	.st519{fill:#C5FBFE;}
	.st520{fill:#0CE8FC;}
	.st521{fill:#0FDFFB;}
	.st522{fill:#BEBEBE;}
	.st523{fill:#34D399;}
	.st524{fill:none;}
	.st525{fill:#FBC22B;}
	.st526{fill:#F78500;}
	.st527{fill-rule:evenodd;clip-rule:evenodd;}
	.st528{fill:#E6E6E6;stroke:#000000;stroke-miterlimit:10;}
	.st529{fill:#17292F;}
	.st530{fill:#FDAC07;}
	.st531{fill:#2F49D1;}
	.st532{fill:#171717;}
	.st533{fill:#10B981;}
	.st534{fill:#EF4444;}
	.st535{fill:#F7B91C;}
	.st536{fill:#353535;}
	.st537{fill:#1E1E1E;}
</style>
<g>
	<g>
		<path class="st535" d="M6,288.1h3.6c1.7,0,2.9-0.4,3.6-1.1c0.7-0.8,1.1-2,1.1-3.6v-53.4c0-1.6-0.4-2.7-1.1-3.4
			c-0.7-0.7-1.9-1.1-3.6-1.1H6v-9.3h29.2v9.3h-3.1c-1.6,0-2.7,0.4-3.4,1.1c-0.7,0.7-1.1,1.9-1.1,3.4V252h34.1V230
			c0-1.7-0.3-2.9-1-3.6c-0.7-0.7-1.8-1.1-3.5-1.1h-3.3v-9.3h29.3v9.3h-3.6c-1.7,0-2.9,0.4-3.6,1.1c-0.7,0.7-1.1,1.9-1.1,3.4v53.4
			c0,1.7,0.4,2.9,1.1,3.6c0.7,0.8,1.9,1.1,3.6,1.1h3.6v9.1H53.9v-9.1h3.3c1.6,0,2.7-0.4,3.4-1.1c0.7-0.8,1.1-2,1.1-3.6v-22.2H27.6
			v22.2c0,1.7,0.4,2.9,1.1,3.6c0.7,0.8,1.9,1.1,3.4,1.1h3.1v9.1H6V288.1z"/>
		<path class="st535" d="M88.3,288.1h3.9c1.9,0,3.4-0.3,4.4-1c1-0.7,1.9-1.8,2.4-3.5l23.9-67.4h12.7l23.7,67.4
			c0.6,1.7,1.4,2.8,2.5,3.5c1.1,0.7,2.6,1,4.5,1h3.8v9.1h-28.6v-9.1h6.3l-5.5-16h-26.1l-5.5,16h6.3v9.1H88.3V288.1z M139.8,264.1
			l-10.4-30.6l-10.7,30.6H139.8z"/>
		<path class="st535" d="M179.4,288.2h2.9c1.7,0,2.9-0.4,3.6-1.1c0.7-0.8,1.1-1.9,1.1-3.5v-16l-20.3-37.3c-1.1-1.9-2.2-3.2-3.3-3.9
			c-1.1-0.7-2.6-1.1-4.6-1.1h-2.9v-9h27.3v9h-1.8c-1.8,0-2.8,0.5-2.8,1.6c0,0.8,0.3,1.7,1,2.9l13.9,26.9l13.8-26.9
			c0.6-1.1,0.9-2,0.9-2.9c0-1.1-0.9-1.6-2.6-1.6h-1.9v-9h27.3v9h-2.9c-2,0-3.6,0.4-4.6,1.1c-1.1,0.7-2.2,2-3.3,3.9l-20.2,37.3v16
			c0,1.6,0.4,2.8,1.1,3.5s1.9,1.1,3.5,1.1h2.9v9h-28.2V288.2z"/>
		<path class="st535" d="M237.5,288.1h3.6c1.7,0,2.9-0.4,3.6-1.1c0.7-0.8,1.1-2,1.1-3.6v-53.4c0-1.6-0.4-2.7-1.1-3.4
			c-0.7-0.7-1.9-1.1-3.6-1.1h-3.6v-9.3h60v16.2h-12v-2.5c0-1.6-0.4-2.7-1.1-3.4c-0.8-0.7-2-1.1-3.6-1.1H259V252h21.7v9.3H259v26.8
			h21.7c1.7,0,2.9-0.4,3.6-1.1c0.8-0.7,1.1-1.9,1.1-3.6v-2.5h12v16.3h-60V288.1z"/>
		<path class="st535" d="M305.8,287.9h3.6c1.7,0,2.9-0.4,3.6-1.1c0.7-0.7,1.1-1.9,1.1-3.4v-53.6c0-1.6-0.4-2.7-1.1-3.4
			c-0.7-0.7-1.9-1.1-3.6-1.1h-2.9v-9.1h27.2v9.1h-2.3c-1.5,0-2.6,0.4-3.2,1.1c-0.6,0.8-0.9,1.9-0.9,3.4v26.6l28.9-31.1h-6.4v-9.1
			h27.6v9.6h-4.6c-1.6,0-2.8,0.3-3.8,0.8c-0.9,0.5-2,1.4-3.1,2.6l-20.3,21.4l22.2,33.6c0.9,1.3,1.9,2.3,2.9,2.9
			c1,0.6,2.3,0.9,3.9,0.9h4.1v9.3h-28.8v-9.3h7l-19.2-29.1L327.3,270v13.4c0,1.5,0.3,2.6,0.9,3.4c0.6,0.8,1.8,1.1,3.4,1.1h2.8v9.3
			h-28.7V287.9z"/>
	</g>
	<g>
		<path class="st535" d="M409.6,247.6l96.4,0v-32.1h-30.3c-1,0-1.9-0.8-1.9-1.9v-14.1h-32.1v14.1c0,1-0.8,1.9-1.9,1.9h-30.3
			L409.6,247.6z"/>
		<path class="st535" d="M506,264.4l-96.4,0v32.1l30.3,0c1,0,1.9,0.8,1.9,1.9v14.1l32.1,0v-14.1c0-1,0.8-1.9,1.9-1.9H506V264.4z"/>
	</g>
</g>
</svg>
