<?xml version="1.0" encoding="UTF-8" standalone="no" ?>
<!DOCTYPE svg PUBLIC "-//W3C//DTD SVG 1.1//EN" "http://www.w3.org/Graphics/SVG/1.1/DTD/svg11.dtd">
<svg xmlns="http://www.w3.org/2000/svg" xmlns:xlink="http://www.w3.org/1999/xlink" version="1.1" width="499" height="113" viewBox="0 0 499 113" xml:space="preserve">
<desc>Created with Fabric.js 3.6.3</desc>
<defs>
</defs>
<g transform="matrix(1 0 0 1 250 57)"  >
<g style=""   >
		<g transform="matrix(1 0 0 1 -211.4 0.5)" id="图层_1"  >
<path style="stroke: none; stroke-width: 1; stroke-dasharray: none; stroke-linecap: butt; stroke-dashoffset: 0; stroke-linejoin: miter; stroke-miterlimit: 4; fill: rgb(247,185,28); fill-rule: nonzero; opacity: 1;"  transform=" translate(-44.6, -256.5)" d="M 6 288.1 h 3.6 c 1.7 0 2.9 -0.4 3.6 -1.1 c 0.7 -0.8 1.1 -2 1.1 -3.6 v -53.4 c 0 -1.6 -0.4 -2.7 -1.1 -3.4 c -0.7 -0.7 -1.9 -1.1 -3.6 -1.1 H 6 v -9.3 h 29.2 v 9.3 h -3.1 c -1.6 0 -2.7 0.4 -3.4 1.1 c -0.7 0.7 -1.1 1.9 -1.1 3.4 V 252 h 34.1 V 230 c 0 -1.7 -0.3 -2.9 -1 -3.6 c -0.7 -0.7 -1.8 -1.1 -3.5 -1.1 h -3.3 v -9.3 h 29.3 v 9.3 h -3.6 c -1.7 0 -2.9 0.4 -3.6 1.1 c -0.7 0.7 -1.1 1.9 -1.1 3.4 v 53.4 c 0 1.7 0.4 2.9 1.1 3.6 c 0.7 0.8 1.9 1.1 3.6 1.1 h 3.6 v 9.1 H 53.9 v -9.1 h 3.3 c 1.6 0 2.7 -0.4 3.4 -1.1 c 0.7 -0.8 1.1 -2 1.1 -3.6 v -22.2 H 27.6 v 22.2 c 0 1.7 0.4 2.9 1.1 3.6 c 0.7 0.8 1.9 1.1 3.4 1.1 h 3.1 v 9.1 H 6 V 288.1 z" stroke-linecap="round" />
</g>
		<g transform="matrix(1 0 0 1 -126.8 0.7)" id="图层_1"  >
<path style="stroke: none; stroke-width: 1; stroke-dasharray: none; stroke-linecap: butt; stroke-dashoffset: 0; stroke-linejoin: miter; stroke-miterlimit: 4; fill: rgb(247,185,28); fill-rule: nonzero; opacity: 1;"  transform=" translate(-129.2, -256.7)" d="M 88.3 288.1 h 3.9 c 1.9 0 3.4 -0.3 4.4 -1 c 1 -0.7 1.9 -1.8 2.4 -3.5 l 23.9 -67.4 h 12.7 l 23.7 67.4 c 0.6 1.7 1.4 2.8 2.5 3.5 c 1.1 0.7 2.6 1 4.5 1 h 3.8 v 9.1 h -28.6 v -9.1 h 6.3 l -5.5 -16 h -26.1 l -5.5 16 h 6.3 v 9.1 H 88.3 V 288.1 z M 139.8 264.1 l -10.4 -30.6 l -10.7 30.6 H 139.8 z" stroke-linecap="round" />
</g>
		<g transform="matrix(1 0 0 1 -62.55 0.75)" id="图层_1"  >
<path style="stroke: none; stroke-width: 1; stroke-dasharray: none; stroke-linecap: butt; stroke-dashoffset: 0; stroke-linejoin: miter; stroke-miterlimit: 4; fill: rgb(247,185,28); fill-rule: nonzero; opacity: 1;"  transform=" translate(-193.45, -256.75)" d="M 179.4 288.2 h 2.9 c 1.7 0 2.9 -0.4 3.6 -1.1 c 0.7 -0.8 1.1 -1.9 1.1 -3.5 v -16 l -20.3 -37.3 c -1.1 -1.9 -2.2 -3.2 -3.3 -3.9 c -1.1 -0.7 -2.6 -1.1 -4.6 -1.1 h -2.9 v -9 h 27.3 v 9 h -1.8 c -1.8 0 -2.8 0.5 -2.8 1.6 c 0 0.8 0.3 1.7 1 2.9 l 13.9 26.9 l 13.8 -26.9 c 0.6 -1.1 0.9 -2 0.9 -2.9 c 0 -1.1 -0.9 -1.6 -2.6 -1.6 h -1.9 v -9 h 27.3 v 9 h -2.9 c -2 0 -3.6 0.4 -4.6 1.1 c -1.1 0.7 -2.2 2 -3.3 3.9 l -20.2 37.3 v 16 c 0 1.6 0.4 2.8 1.1 3.5 s 1.9 1.1 3.5 1.1 h 2.9 v 9 h -28.2 V 288.2 z" stroke-linecap="round" />
</g>
		<g transform="matrix(1 0 0 1 11.45 0.7)" id="图层_1"  >
<path style="stroke: none; stroke-width: 1; stroke-dasharray: none; stroke-linecap: butt; stroke-dashoffset: 0; stroke-linejoin: miter; stroke-miterlimit: 4; fill: rgb(247,185,28); fill-rule: nonzero; opacity: 1;"  transform=" translate(-267.45, -256.7)" d="M 237.5 288.1 h 3.6 c 1.7 0 2.9 -0.4 3.6 -1.1 c 0.7 -0.8 1.1 -2 1.1 -3.6 v -53.4 c 0 -1.6 -0.4 -2.7 -1.1 -3.4 c -0.7 -0.7 -1.9 -1.1 -3.6 -1.1 h -3.6 v -9.3 h 60 v 16.2 h -12 v -2.5 c 0 -1.6 -0.4 -2.7 -1.1 -3.4 c -0.8 -0.7 -2 -1.1 -3.6 -1.1 H 259 V 252 h 21.7 v 9.3 H 259 v 26.8 h 21.7 c 1.7 0 2.9 -0.4 3.6 -1.1 c 0.8 -0.7 1.1 -1.9 1.1 -3.6 v -2.5 h 12 v 16.3 h -60 V 288.1 z" stroke-linecap="round" />
</g>
		<g transform="matrix(1 0 0 1 86.2 0.75)" id="图层_1"  >
<path style="stroke: none; stroke-width: 1; stroke-dasharray: none; stroke-linecap: butt; stroke-dashoffset: 0; stroke-linejoin: miter; stroke-miterlimit: 4; fill: rgb(247,185,28); fill-rule: nonzero; opacity: 1;"  transform=" translate(-342.2, -256.75)" d="M 305.8 287.9 h 3.6 c 1.7 0 2.9 -0.4 3.6 -1.1 c 0.7 -0.7 1.1 -1.9 1.1 -3.4 v -53.6 c 0 -1.6 -0.4 -2.7 -1.1 -3.4 c -0.7 -0.7 -1.9 -1.1 -3.6 -1.1 h -2.9 v -9.1 h 27.2 v 9.1 h -2.3 c -1.5 0 -2.6 0.4 -3.2 1.1 c -0.6 0.8 -0.9 1.9 -0.9 3.4 v 26.6 l 28.9 -31.1 h -6.4 v -9.1 h 27.6 v 9.6 h -4.6 c -1.6 0 -2.8 0.3 -3.8 0.8 c -0.9 0.5 -2 1.4 -3.1 2.6 l -20.3 21.4 l 22.2 33.6 c 0.9 1.3 1.9 2.3 2.9 2.9 c 1 0.6 2.3 0.9 3.9 0.9 h 4.1 v 9.3 h -28.8 v -9.3 h 7 l -19.2 -29.1 L 327.3 270 v 13.4 c 0 1.5 0.3 2.6 0.9 3.4 c 0.6 0.8 1.8 1.1 3.4 1.1 h 2.8 v 9.3 h -28.7 V 287.9 z" stroke-linecap="round" />
</g>
		<g transform="matrix(1 0 0 1 201.75 -32.45)" id="图层_1"  >
<path style="stroke: none; stroke-width: 1; stroke-dasharray: none; stroke-linecap: butt; stroke-dashoffset: 0; stroke-linejoin: miter; stroke-miterlimit: 4; fill: rgb(247,185,28); fill-rule: nonzero; opacity: 1;"  transform=" translate(-457.75, -223.55)" d="M 409.6 247.6 l 96.4 0 v -32.1 h -30.3 c -1 0 -1.9 -0.8 -1.9 -1.9 v -14.1 h -32.1 v 14.1 c 0 1 -0.8 1.9 -1.9 1.9 h -30.3 L 409.6 247.6 z" stroke-linecap="round" />
</g>
		<g transform="matrix(1 0 0 1 201.8 32.45)" id="图层_1"  >
<path style="stroke: none; stroke-width: 1; stroke-dasharray: none; stroke-linecap: butt; stroke-dashoffset: 0; stroke-linejoin: miter; stroke-miterlimit: 4; fill: rgb(247,185,28); fill-rule: nonzero; opacity: 1;"  transform=" translate(-457.8, -288.45)" d="M 506 264.4 l -96.4 0 v 32.1 l 30.3 0 c 1 0 1.9 0.8 1.9 1.9 v 14.1 l 32.1 0 v -14.1 c 0 -1 0.8 -1.9 1.9 -1.9 H 506 V 264.4 z" stroke-linecap="round" />
</g>
</g>
</g>
</svg>